<?xml version="1.0" encoding="UTF-8" standalone="no"?>
<!-- Created with Inkscape (http://www.inkscape.org/) -->

<svg
   width="210mm"
   height="297mm"
   viewBox="0 0 210 297"
   version="1.1"
   id="svg1"
   xml:space="preserve"
   inkscape:version="1.4 (86a8ad7, 2024-10-11)"
   sodipodi:docname="GRUPO!SVG.svg"
   xmlns:inkscape="http://www.inkscape.org/namespaces/inkscape"
   xmlns:sodipodi="http://sodipodi.sourceforge.net/DTD/sodipodi-0.dtd"
   xmlns="http://www.w3.org/2000/svg"
   xmlns:svg="http://www.w3.org/2000/svg"><sodipodi:namedview
     id="namedview1"
     pagecolor="#ffffff"
     bordercolor="#000000"
     borderopacity="0.25"
     inkscape:showpageshadow="2"
     inkscape:pageopacity="0.0"
     inkscape:pagecheckerboard="0"
     inkscape:deskcolor="#d1d1d1"
     inkscape:document-units="mm"
     inkscape:zoom="0.49264169"
     inkscape:cx="396.84014"
     inkscape:cy="561.25984"
     inkscape:window-width="1366"
     inkscape:window-height="715"
     inkscape:window-x="-8"
     inkscape:window-y="-8"
     inkscape:window-maximized="1"
     inkscape:current-layer="layer1" /><defs
     id="defs1" /><g
     inkscape:label="Capa 1"
     inkscape:groupmode="layer"
     id="layer1"><path
       style="fill:#e9f4f6"
       d="m 83.185064,229.19132 c 0.486371,-0.14873 1.161214,-0.13895 1.499652,0.0217 0.338438,0.16069 -0.0595,0.28238 -0.884311,0.27042 -0.824809,-0.012 -1.101712,-0.14342 -0.615341,-0.29215 z"
       id="path87" /><path
       style="fill:#e3f1f4"
       d="m 85.684484,229.19132 c 0.486371,-0.14873 1.161214,-0.13895 1.499652,0.0217 0.338438,0.16069 -0.0595,0.28238 -0.884311,0.27042 -0.824808,-0.012 -1.101712,-0.14342 -0.615341,-0.29215 z"
       id="path86" /><path
       style="fill:#ebebeb"
       d="m 97.047332,285.32594 c -0.450541,-0.34167 -0.512197,-0.57223 -0.154472,-0.57763 0.327444,-0.005 0.734379,0.255 0.904298,0.57763 0.383564,0.7283 0.210513,0.7283 -0.749826,0 z m 60.025548,-12.07442 c 0.024,-0.68337 0.14244,-0.82237 0.30201,-0.35441 0.14441,0.42346 0.12665,0.92941 -0.0395,1.12434 -0.16611,0.19492 -0.28425,-0.15154 -0.26255,-0.76993 z"
       id="path85" /><path
       style="fill:#e7f1e0"
       d="m 203.06221,265.62557 c 0.024,-0.68337 0.14244,-0.82237 0.30202,-0.35441 0.1444,0.42346 0.12664,0.92941 -0.0395,1.12434 -0.16611,0.19492 -0.28425,-0.15155 -0.26255,-0.76993 z"
       id="path84" /><path
       style="fill:#daedf1"
       d="m 88.174391,229.19347 c 0.481138,-0.14755 1.268455,-0.14755 1.749594,0 0.481138,0.14755 0.08748,0.26827 -0.874797,0.26827 -0.962277,0 -1.355936,-0.12072 -0.874797,-0.26827 z"
       id="path83" /><path
       style="fill:#d2e9ee"
       d="m 90.923753,229.20933 c 0.34367,-0.16273 0.90604,-0.16273 1.24971,0 0.34367,0.16274 0.06248,0.29588 -0.624855,0.29588 -0.687341,0 -0.968525,-0.13314 -0.624855,-0.29588 z"
       id="path82" /><path
       style="fill:#e0eed6"
       d="m 203.06221,270.31846 c 0.024,-0.68337 0.14244,-0.82237 0.30202,-0.35441 0.1444,0.42346 0.12664,0.92941 -0.0395,1.12434 -0.16611,0.19493 -0.28425,-0.15154 -0.26255,-0.76993 z"
       id="path81" /><path
       style="fill:#ddecd3"
       d="m 203.06221,272.0783 c 0.024,-0.68337 0.14244,-0.82237 0.30202,-0.35442 0.1444,0.42347 0.12664,0.92942 -0.0395,1.12434 -0.16611,0.19493 -0.28425,-0.15154 -0.26255,-0.76992 z m -17.12925,-7.09788 c 0.36086,-0.16945 0.79201,-0.14861 0.95811,0.0463 0.16611,0.19493 -0.12913,0.33358 -0.65609,0.3081 -0.58234,-0.0281 -0.70079,-0.16714 -0.30202,-0.35441 z"
       id="path80" /><path
       style="fill:#cae6eb"
       d="m 94.182513,229.19132 c 0.486371,-0.14873 1.161214,-0.13895 1.499652,0.0217 0.338438,0.16069 -0.0595,0.28238 -0.884311,0.27042 -0.824808,-0.012 -1.101712,-0.14342 -0.615341,-0.29215 z"
       id="path79" /><path
       style="fill:#d8eacd"
       d="m 203.06221,273.83813 c 0.024,-0.68337 0.14244,-0.82237 0.30202,-0.35441 0.1444,0.42346 0.12664,0.92941 -0.0395,1.12434 -0.16611,0.19493 -0.28425,-0.15154 -0.26255,-0.76993 z"
       id="path78" /><path
       style="fill:#c3e2e9"
       d="m 67.593638,232.77531 c 0.02399,-0.68337 0.142437,-0.82237 0.302013,-0.35441 0.144402,0.42346 0.126643,0.92942 -0.03946,1.12434 -0.166107,0.19493 -0.284254,-0.15154 -0.262549,-0.76993 z m 29.088295,-3.58399 c 0.486371,-0.14873 1.161215,-0.13895 1.499652,0.0217 0.338438,0.16069 -0.0595,0.28238 -0.884311,0.27042 -0.824808,-0.012 -1.101712,-0.14342 -0.615341,-0.29215 z"
       id="path77" /><path
       style="fill:#d6e8ca"
       d="m 203.10168,275.94016 c 0,-0.80659 0.11346,-1.13656 0.25213,-0.73327 0.13868,0.4033 0.13868,1.06324 0,1.46653 -0.13867,0.4033 -0.25213,0.0733 -0.25213,-0.73326 z m -14.6693,-10.95974 c 0.36086,-0.16945 0.79201,-0.14861 0.95811,0.0463 0.16611,0.19493 -0.12913,0.33358 -0.65609,0.3081 -0.58234,-0.0281 -0.70079,-0.16714 -0.30202,-0.35441 z"
       id="path76" /><path
       style="fill:#b9dee5"
       d="m 99.952908,229.19711 c 0.360852,-0.16945 0.792002,-0.14861 0.958112,0.0463 0.16611,0.19493 -0.12914,0.33357 -0.6561,0.3081 -0.582335,-0.0282 -0.700785,-0.16715 -0.302012,-0.35441 z"
       id="path75" /><path
       style="fill:#cfe5c0"
       d="m 203.06221,278.53102 c 0.024,-0.68336 0.14244,-0.82237 0.30202,-0.35441 0.1444,0.42346 0.12664,0.92942 -0.0395,1.12434 -0.16611,0.19493 -0.28425,-0.15154 -0.26255,-0.76993 z"
       id="path74" /><path
       style="fill:#b3dbe3"
       d="m 67.593638,236.29498 c 0.02399,-0.68337 0.142437,-0.82237 0.302013,-0.35441 0.144402,0.42346 0.126643,0.92942 -0.03946,1.12434 -0.166107,0.19493 -0.284254,-0.15154 -0.262549,-0.76993 z m 34.087132,-7.10366 c 0.48637,-0.14873 1.16122,-0.13895 1.49965,0.0217 0.33844,0.16069 -0.0595,0.28238 -0.88431,0.27042 -0.8248,-0.012 -1.10171,-0.14342 -0.61534,-0.29215 z"
       id="path73" /><path
       style="fill:#cbe3bc"
       d="m 203.06221,280.29086 c 0.024,-0.68337 0.14244,-0.82237 0.30202,-0.35441 0.1444,0.42346 0.12664,0.92941 -0.0395,1.12434 -0.16611,0.19492 -0.28425,-0.15154 -0.26255,-0.76993 z"
       id="path72" /><path
       style="fill:#aed9e1"
       d="m 103.95198,229.19711 c 0.36085,-0.16945 0.792,-0.14861 0.95811,0.0463 0.16611,0.19493 -0.12914,0.33357 -0.6561,0.3081 -0.58233,-0.0282 -0.70079,-0.16715 -0.30201,-0.35441 z"
       id="path71" /><path
       style="fill:#a8d6df"
       d="m 106.4514,229.19711 c 0.36085,-0.16945 0.792,-0.14861 0.95811,0.0463 0.16611,0.19493 -0.12914,0.33357 -0.6561,0.3081 -0.58233,-0.0282 -0.70078,-0.16715 -0.30201,-0.35441 z"
       id="path70" /><path
       style="fill:#c6e0b5"
       d="m 203.06221,282.63731 c 0.024,-0.68337 0.14244,-0.82237 0.30202,-0.35441 0.1444,0.42346 0.12664,0.92941 -0.0395,1.12433 -0.16611,0.19493 -0.28425,-0.15154 -0.26255,-0.76992 z"
       id="path69" /><path
       style="fill:#a2d3dd"
       d="m 107.91981,229.20933 c 0.34367,-0.16273 0.90604,-0.16273 1.24971,0 0.34367,0.16274 0.0625,0.29588 -0.62486,0.29588 -0.68734,0 -0.96852,-0.13314 -0.62485,-0.29588 z"
       id="path68" /><path
       style="fill:#c0ddad"
       d="m 203.10168,285.32594 c 0,-0.80659 0.11346,-1.13656 0.25213,-0.73326 0.13868,0.40329 0.13868,1.06323 0,1.46653 -0.13867,0.40329 -0.25213,0.0733 -0.25213,-0.73327 z"
       id="path67" /><path
       style="fill:#c2c2c2"
       d="m 191.14151,263.0347 c 0,-1.12923 0.10287,-1.59118 0.2286,-1.02657 0.12574,0.56461 0.12574,1.48853 0,2.05314 -0.12573,0.56461 -0.2286,0.10266 -0.2286,-1.02657 z m 8.96086,0.58661 c 0,-0.80659 0.11346,-1.13656 0.25214,-0.73326 0.13867,0.40329 0.13867,1.06323 0,1.46653 -0.13868,0.40329 -0.25214,0.0733 -0.25214,-0.73327 z m -15.76448,-1.02657 c 0.47082,-2.30303 0.68903,-2.38044 0.68903,-0.24442 0,1.02168 -0.22923,1.8576 -0.5094,1.8576 -0.30242,0 -0.3754,-0.65551 -0.17963,-1.61318 z m 15.72502,-2.24868 c 0.024,-0.68337 0.14244,-0.82237 0.30201,-0.35441 0.1444,0.42346 0.12664,0.92941 -0.0395,1.12434 -0.16611,0.19493 -0.28426,-0.15154 -0.26255,-0.76993 z M 65.460909,228.6105 c 0.360854,-0.16946 0.792004,-0.14862 0.958111,0.0463 0.166107,0.19493 -0.129137,0.33357 -0.656098,0.3081 -0.582336,-0.0282 -0.700787,-0.16715 -0.302013,-0.35441 z m 104.666941,-1.06581 c 0.0102,-0.96791 0.12222,-1.29285 0.24897,-0.7221 0.12674,0.57076 0.1184,1.36268 -0.0185,1.75984 -0.13693,0.39715 -0.24062,-0.0698 -0.23044,-1.03774 z M 65.460909,226.85066 c 0.360854,-0.16945 0.792004,-0.14861 0.958111,0.0463 0.166107,0.19492 -0.129137,0.33357 -0.656098,0.3081 -0.582336,-0.0282 -0.700787,-0.16715 -0.302013,-0.35442 z m 93.111621,-0.52808 c 0.024,-0.68336 0.14244,-0.82237 0.30202,-0.35441 0.1444,0.42346 0.12664,0.92942 -0.0395,1.12434 -0.16611,0.19493 -0.28425,-0.15154 -0.26255,-0.76993 z m 1.49966,0 c 0.024,-0.68336 0.14243,-0.82237 0.30201,-0.35441 0.1444,0.42346 0.12664,0.92942 -0.0395,1.12434 -0.1661,0.19493 -0.28425,-0.15154 -0.26254,-0.76993 z M 67.093754,214.00374 c 0.02399,-0.68337 0.142437,-0.82237 0.302013,-0.35441 0.144402,0.42346 0.126643,0.92941 -0.03946,1.12434 -0.166108,0.19492 -0.284254,-0.15154 -0.262549,-0.76993 z m 79.021146,-1.41765 c 0,-0.80659 0.11346,-1.13656 0.25213,-0.73326 0.13867,0.4033 0.13867,1.06323 0,1.46653 -0.13867,0.40329 -0.25213,0.0733 -0.25213,-0.73327 z m -79.021146,-3.27524 c 0.02399,-0.68337 0.142437,-0.82237 0.302013,-0.35442 0.144402,0.42347 0.126643,0.92942 -0.03946,1.12434 -0.166108,0.19493 -0.284254,-0.15154 -0.262549,-0.76992 z m 80.039436,-2.29757 c 0.0102,-0.96791 0.12222,-1.29285 0.24896,-0.7221 0.12674,0.57076 0.11841,1.36268 -0.0185,1.75984 -0.13693,0.39715 -0.24063,-0.0698 -0.23044,-1.03774 z m -84.383135,0.0427 c -0.150582,-0.4605 -0.174156,-1.4504 -0.05239,-2.1998 0.171324,-1.05437 0.236796,-0.93827 0.289474,0.5133 0.0665,1.83233 0.128925,1.88082 2.692466,2.09128 l 2.624392,0.21545 -2.64008,0.10851 c -1.890901,0.0777 -2.717773,-0.12908 -2.913865,-0.72874 z m 1.844279,-1.85139 c 0.02399,-0.68336 0.142437,-0.82237 0.302013,-0.35441 0.144402,0.42346 0.126643,0.92942 -0.03946,1.12434 -0.166108,0.19493 -0.284255,-0.15154 -0.262549,-0.76993 z m 2.538885,-0.24442 c 0,-0.80659 0.11346,-1.13656 0.252134,-0.73326 0.138674,0.40329 0.138674,1.06323 0,1.46653 -0.138674,0.40329 -0.252134,0.0733 -0.252134,-0.73327 z m 79.999971,-2.63975 c 0.0102,-0.96791 0.12222,-1.29285 0.24896,-0.7221 0.12674,0.57075 0.11841,1.36268 -0.0185,1.75983 -0.13693,0.39716 -0.24063,-0.0698 -0.23044,-1.03773 z m -2.75165,-2.4666 c 2.48841,-0.22254 2.6036,-0.30886 2.81461,-2.10908 0.2137,-1.82312 0.21814,-1.81806 0.15477,0.17609 l -0.0652,2.05314 -2.74937,0.0559 -2.74936,0.0559 z m -79.076845,-1.93299 c -0.815015,-0.41098 -0.84356,-0.51177 -0.154472,-0.54538 0.464912,-0.0227 0.98432,0.22275 1.15424,0.54538 0.35525,0.67454 0.337879,0.67454 -0.999768,0 z m 77.311015,-0.58664 c 0,-0.80659 0.11346,-1.13656 0.25213,-0.73326 0.13868,0.40329 0.13868,1.06323 0,1.46653 -0.13867,0.40329 -0.25213,0.0733 -0.25213,-0.73327 z m 1.96007,0.24442 c 0.024,-0.68337 0.14244,-0.82237 0.30201,-0.35441 0.1444,0.42346 0.12665,0.92941 -0.0395,1.12434 -0.16611,0.19493 -0.28426,-0.15154 -0.26255,-0.76993 z m 24.55231,-4.0574 c 0.0102,-0.9679 0.12222,-1.29285 0.24896,-0.7221 0.12674,0.57076 0.11841,1.36268 -0.0185,1.75984 -0.13693,0.39715 -0.24063,-0.0698 -0.23044,-1.03774 z m 7.54378,-1.17322 c 0.004,-1.61318 0.10083,-2.2035 0.21573,-1.31181 0.1149,0.89169 0.11183,2.21156 -0.007,2.93306 -0.11866,0.7215 -0.21266,-0.008 -0.20891,-1.62125 z m -30.75828,-0.58645 c 0.1282,-0.78697 0.60184,-1.75616 1.05253,-2.15375 0.68964,-0.60838 0.72046,-0.59263 0.19459,0.0994 -0.34367,0.45226 -0.62486,1.28187 -0.62486,1.84358 0,0.5617 -0.19245,1.16086 -0.42767,1.33145 -0.23522,0.1706 -0.32278,-0.33371 -0.19459,-1.12069 z m 11.65917,0.53757 c 0.024,-0.68337 0.14244,-0.82237 0.30202,-0.35441 0.1444,0.42346 0.12664,0.92941 -0.0395,1.12434 -0.1661,0.19492 -0.28425,-0.15155 -0.26255,-0.76993 z m 1.49966,0 c 0.024,-0.68337 0.14243,-0.82237 0.30201,-0.35441 0.1444,0.42346 0.12664,0.92941 -0.0395,1.12434 -0.16611,0.19492 -0.28426,-0.15155 -0.26255,-0.76993 z m -15.12972,-2.40498 c 0.36086,-0.16946 0.79201,-0.14862 0.95811,0.0463 0.16611,0.19493 -0.12913,0.33357 -0.65609,0.3081 -0.58234,-0.0281 -0.70079,-0.16715 -0.30202,-0.35441 z M 39.703641,153.04501 c 0.0038,-1.61318 0.100833,-2.2035 0.215733,-1.31181 0.114901,0.89168 0.11183,2.21156 -0.0068,2.93306 -0.118654,0.72149 -0.212663,-0.008 -0.20891,-1.62125 z m 4.99884,0 c 0.0038,-1.61318 0.100833,-2.2035 0.215734,-1.31181 0.1149,0.89168 0.11183,2.21156 -0.0068,2.93306 -0.118653,0.72149 -0.212663,-0.008 -0.20891,-1.62125 z m 9.497797,0 c 0.0038,-1.61318 0.100833,-2.2035 0.215734,-1.31181 0.1149,0.89168 0.11183,2.21156 -0.0068,2.93306 -0.118653,0.72149 -0.212663,-0.008 -0.20891,-1.62125 z m 76.482262,0 c 0.004,-1.61318 0.10083,-2.2035 0.21573,-1.31181 0.1149,0.89168 0.11183,2.21156 -0.007,2.93306 -0.11866,0.72149 -0.21267,-0.008 -0.20891,-1.62125 z m 4.99884,0 c 0.004,-1.61318 0.10083,-2.2035 0.21573,-1.31181 0.1149,0.89168 0.11183,2.21156 -0.007,2.93306 -0.11866,0.72149 -0.21267,-0.008 -0.20891,-1.62125 z m 9.49779,0 c 0.004,-1.61318 0.10084,-2.2035 0.21574,-1.31181 0.1149,0.89168 0.11183,2.21156 -0.007,2.93306 -0.11865,0.72149 -0.21266,-0.008 -0.20891,-1.62125 z m -94.081706,1.12434 c 0.02399,-0.68337 0.142438,-0.82237 0.302014,-0.35441 0.144402,0.42346 0.126643,0.92941 -0.03946,1.12434 -0.166107,0.19492 -0.284254,-0.15155 -0.262549,-0.76993 z m 90.978896,0 c 0.024,-0.68337 0.14244,-0.82237 0.30201,-0.35441 0.1444,0.42346 0.12665,0.92941 -0.0395,1.12434 -0.16611,0.19492 -0.28426,-0.15155 -0.26255,-0.76993 z M 29.102566,152.99612 c 0.02399,-0.68336 0.142437,-0.82237 0.302014,-0.35441 0.144401,0.42346 0.126642,0.92942 -0.03946,1.12434 -0.166107,0.19493 -0.284254,-0.15154 -0.262549,-0.76993 z m 1.499653,0 c 0.02399,-0.68336 0.142437,-0.82237 0.302013,-0.35441 0.144402,0.42346 0.126643,0.92942 -0.03946,1.12434 -0.166107,0.19493 -0.284254,-0.15154 -0.262548,-0.76993 z m 89.479241,0 c 0.024,-0.68336 0.14244,-0.82237 0.30201,-0.35441 0.14441,0.42346 0.12665,0.92942 -0.0395,1.12434 -0.16611,0.19493 -0.28425,-0.15154 -0.26255,-0.76993 z m 1.49965,0 c 0.024,-0.68336 0.14244,-0.82237 0.30202,-0.35441 0.1444,0.42346 0.12664,0.92942 -0.0395,1.12434 -0.16611,0.19493 -0.28425,-0.15154 -0.26255,-0.76993 z m -56.620085,-18.8301 c 0.360854,-0.16946 0.792004,-0.14862 0.958111,0.0463 0.166107,0.19493 -0.129137,0.33357 -0.656098,0.3081 -0.582336,-0.0282 -0.700787,-0.16715 -0.302013,-0.35441 z m -0.406156,-20.7173 -2.249478,-0.4104 2.653893,-0.0881 c 1.659163,-0.0551 2.538094,0.13177 2.344948,0.49851 -0.16992,0.32264 -0.351907,0.54696 -0.404415,0.49851 -0.05251,-0.0485 -1.107735,-0.27279 -2.344948,-0.49851 z m -0.09373,-10.37312 c 0.360854,-0.16946 0.792004,-0.14862 0.958111,0.0463 0.166107,0.19493 -0.129137,0.33357 -0.656098,0.3081 -0.582336,-0.0281 -0.700787,-0.16715 -0.302013,-0.35441 z m 77.981911,-2.34645 c 0.36085,-0.16945 0.792,-0.14861 0.95811,0.0463 0.16611,0.19493 -0.12914,0.33357 -0.6561,0.3081 -0.58233,-0.0281 -0.70078,-0.16715 -0.30201,-0.35441 z m -0.40616,-20.717297 -2.24947,-0.410401 2.65389,-0.08811 c 1.65916,-0.05508 2.53809,0.131768 2.34495,0.498506 -0.16992,0.322637 -0.35191,0.546965 -0.40442,0.498507 -0.0525,-0.04846 -1.10773,-0.272786 -2.34495,-0.498507 z m 22.59224,-1.466529 c 0.0102,-0.967909 0.12222,-1.292854 0.24896,-0.7221 0.12674,0.570754 0.11841,1.36268 -0.0185,1.759835 -0.13693,0.397155 -0.24063,-0.06983 -0.23044,-1.037735 z m -22.68596,-8.906592 c 0.36085,-0.169455 0.792,-0.148615 0.95811,0.04631 0.1661,0.194927 -0.12914,0.333571 -0.6561,0.3081 -0.58234,-0.02815 -0.70079,-0.167149 -0.30201,-0.35441 z m 24.68549,-26.290109 c 0.0102,-0.967909 0.12223,-1.292854 0.24897,-0.7221 0.12674,0.570754 0.11841,1.36268 -0.0185,1.759835 -0.13693,0.397155 -0.24063,-0.06983 -0.23045,-1.037735 z M 164.62913,6.9786983 c 0.0102,-0.9679093 0.12222,-1.2928544 0.24896,-0.7221003 0.12674,0.5707541 0.11841,1.3626799 -0.0185,1.7598351 -0.13693,0.3971555 -0.24063,-0.069826 -0.23044,-1.0377348 z"
       id="path66" /><path
       style="fill:#9cd0da"
       d="m 67.593638,241.57449 c 0.02399,-0.68337 0.142437,-0.82237 0.302013,-0.35441 0.144402,0.42346 0.126643,0.92941 -0.03946,1.12434 -0.166107,0.19492 -0.284254,-0.15154 -0.262549,-0.76993 z m 42.325702,-12.36516 c 0.34367,-0.16273 0.90604,-0.16273 1.24971,0 0.34368,0.16274 0.0625,0.29588 -0.62485,0.29588 -0.68734,0 -0.96853,-0.13314 -0.62486,-0.29588 z"
       id="path65" /><path
       style="fill:#b9d9a4"
       d="m 203.1202,289.13892 c 0.0102,-0.96791 0.12222,-1.29286 0.24896,-0.7221 0.12675,0.57075 0.11841,1.36268 -0.0185,1.75983 -0.13693,0.39716 -0.24063,-0.0698 -0.23044,-1.03773 z"
       id="path64" /><path
       style="fill:#93ccd7"
       d="m 111.95012,229.19711 c 0.36086,-0.16945 0.79201,-0.14861 0.95811,0.0463 0.16611,0.19493 -0.12913,0.33357 -0.65609,0.3081 -0.58234,-0.0282 -0.70079,-0.16715 -0.30202,-0.35441 z"
       id="path63" /><path
       style="fill:#abb6cf"
       d="m 130.03968,169.17683 v -2.93306 h 4.7489 4.74889 v 2.93306 2.93306 h -4.74889 -4.7489 z"
       id="path62" /><path
       style="fill:#b6d8a0"
       d="m 203.06221,291.43648 c 0.024,-0.68337 0.14244,-0.82237 0.30202,-0.35441 0.1444,0.42346 0.12664,0.92941 -0.0395,1.12434 -0.16611,0.19493 -0.28425,-0.15154 -0.26255,-0.76993 z"
       id="path61" /><path
       style="fill:#8cc9d5"
       d="m 113.66848,229.19347 c 0.48113,-0.14755 1.26845,-0.14755 1.74959,0 0.48114,0.14755 0.0875,0.26827 -0.8748,0.26827 -0.96227,0 -1.35593,-0.12072 -0.87479,-0.26827 z"
       id="path60" /><path
       style="fill:#b2d59b"
       d="m 198.43006,264.98042 c 0.36086,-0.16945 0.79201,-0.14861 0.95812,0.0463 0.1661,0.19493 -0.12914,0.33358 -0.6561,0.3081 -0.58234,-0.0281 -0.70079,-0.16714 -0.30202,-0.35441 z"
       id="path59" /><path
       style="fill:#aed495"
       d="m 182.93366,265.56704 c 0.36085,-0.16946 0.792,-0.14862 0.95811,0.0463 0.16611,0.19492 -0.12914,0.33357 -0.6561,0.3081 -0.58233,-0.0282 -0.70079,-0.16715 -0.30201,-0.35441 z"
       id="path58" /><path
       style="fill:#82c4d1"
       d="m 67.593638,245.09416 c 0.02399,-0.68337 0.142437,-0.82237 0.302013,-0.35441 0.144402,0.42346 0.126643,0.92941 -0.03946,1.12434 -0.166107,0.19492 -0.284254,-0.15154 -0.262549,-0.76993 z m 48.855442,-15.89705 c 0.36085,-0.16945 0.792,-0.14861 0.95811,0.0463 0.16611,0.19493 -0.12914,0.33357 -0.6561,0.3081 -0.58233,-0.0282 -0.70078,-0.16715 -0.30201,-0.35441 z"
       id="path57" /><path
       style="fill:#acd292"
       d="m 202.62032,269.78073 c 0.0102,-0.96791 0.12222,-1.29285 0.24896,-0.7221 0.12674,0.57076 0.11841,1.36268 -0.0185,1.75984 -0.13693,0.39715 -0.24063,-0.0698 -0.23044,-1.03774 z m -0.0975,-3.67219 c 0,-0.35275 -0.39365,-0.76209 -0.87479,-0.90964 -0.78868,-0.24186 -0.79158,-0.27497 -0.0295,-0.33632 0.90186,-0.0726 1.70354,0.94941 1.20429,1.53528 -0.165,0.19363 -0.3,0.0634 -0.3,-0.28932 z M 140.5372,247.81742 c 0,-0.3036 0.22237,-0.71327 0.49416,-0.91039 0.28337,-0.20551 0.36717,0.03 0.19646,0.55199 -0.33232,1.01626 -0.69062,1.2022 -0.69062,0.3584 z"
       id="path56" /><path
       style="fill:#7dc2d0"
       d="m 120.92262,259.10014 c 0.62181,-0.14031 1.52161,-0.13498 1.99954,0.0118 0.47793,0.14682 -0.0308,0.26163 -1.13057,0.25512 -1.09974,-0.007 -1.49078,-0.12664 -0.86897,-0.26696 z m -2.97389,-29.90303 c 0.36086,-0.16945 0.79201,-0.14861 0.95811,0.0463 0.16611,0.19493 -0.12913,0.33357 -0.65609,0.3081 -0.58234,-0.0282 -0.70079,-0.16715 -0.30202,-0.35441 z"
       id="path55" /><path
       style="fill:#aad190"
       d="m 202.63884,273.0071 c 0,-1.12923 0.10287,-1.59119 0.22861,-1.02657 0.12573,0.56461 0.12573,1.48852 0,2.05314 -0.12574,0.56461 -0.22861,0.10266 -0.22861,-1.02657 z"
       id="path54" /><path
       style="fill:#7ac0ce"
       d="m 115.67488,259.09409 c 0.75986,-0.13484 1.8846,-0.13123 2.49942,0.008 0.61483,0.13923 -0.007,0.24955 -1.38155,0.24515 -1.37468,-0.004 -1.87772,-0.11833 -1.11787,-0.25316 z m 3.7735,-29.89698 c 0.36086,-0.16945 0.79201,-0.14861 0.95812,0.0463 0.1661,0.19493 -0.12914,0.33357 -0.6561,0.3081 -0.58234,-0.0282 -0.70079,-0.16715 -0.30202,-0.35441 z"
       id="path53" /><path
       style="fill:#a8d08d"
       d="m 190.77559,292.0538 c -0.82481,-0.79339 -1.76209,-1.44384 -2.08285,-1.44544 -0.32076,-0.002 -0.65818,-0.20089 -0.74983,-0.44287 -0.25906,-0.68401 -3.78988,-3.66632 -4.34063,-3.66632 -0.27037,0 -0.56656,-0.19798 -0.65821,-0.43996 -0.25906,-0.68401 -3.78988,-3.66633 -4.34063,-3.66633 -0.27037,0 -0.56656,-0.19798 -0.65821,-0.43995 -0.25906,-0.68401 -3.78988,-3.66633 -4.34063,-3.66633 -0.27037,0 -0.56656,-0.19798 -0.65821,-0.43996 -0.25906,-0.684 -3.78988,-3.66632 -4.34063,-3.66632 -0.27037,0 -0.56656,-0.19798 -0.65821,-0.43996 -0.25906,-0.68401 -3.78988,-3.66632 -4.34063,-3.66632 -0.27037,0 -0.56656,-0.19798 -0.65821,-0.43996 -0.25906,-0.68401 -3.78988,-3.66632 -4.34063,-3.66632 -0.27037,0 -0.56656,-0.19798 -0.65821,-0.43996 -0.25906,-0.68401 -3.78988,-3.66632 -4.34063,-3.66632 -0.27037,0 -0.56656,-0.21994 -0.65821,-0.48875 -0.0917,-0.26881 -2.97831,-2.79497 -6.4148,-5.61369 -5.73989,-4.70803 -7.76933,-6.80302 -6.59014,-6.80302 0.53935,0 3.36041,-4.78329 3.20021,-5.42616 -0.0603,-0.24198 0.0854,-0.43996 0.32382,-0.43996 0.2384,0 1.02891,-1.0559 1.75669,-2.34644 0.72777,-1.29055 1.54446,-2.34645 1.81486,-2.34645 0.2704,0 1.58752,0.92391 2.92694,2.05314 1.33942,1.12923 2.67088,2.05314 2.95881,2.05314 0.28792,0 0.59848,0.20251 0.69012,0.45002 0.258,0.69677 5.23459,4.82949 5.81564,4.82949 0.28393,0 0.59121,0.21147 0.68285,0.46993 0.24712,0.69694 6.70717,5.98279 7.3118,5.98279 0.28585,0 0.5947,0.22319 0.68635,0.49597 0.23891,0.71114 5.18379,4.78354 5.80837,4.78354 0.28792,0 0.59848,0.21147 0.69012,0.46993 0.0916,0.25846 1.67562,1.72562 3.51994,3.26035 l 3.3533,2.79041 10.43776,-0.41238 10.43776,-0.41237 0.33066,7.21653 c 0.18186,3.96909 0.33066,10.34278 0.33066,14.16377 v 6.94724 l -5.37375,-0.0211 c -4.95444,-0.0195 -5.49078,-0.13366 -6.87341,-1.46361 z"
       id="path52" /><path
       style="fill:#fefe00"
       d="m 146.53585,130.16715 v -13.78537 h 28.74333 28.74334 v 13.78537 13.78538 h -28.74334 -28.74333 z"
       id="path51" /><path
       style="fill:#72bdcb"
       d="m 111.92471,259.10014 c 0.62181,-0.14031 1.5216,-0.13498 1.99954,0.0118 0.47793,0.14682 -0.0308,0.26163 -1.13057,0.25512 -1.09975,-0.007 -1.49078,-0.12664 -0.86897,-0.26696 z M 67.593638,248.02722 c 0.02399,-0.68337 0.142437,-0.82237 0.302013,-0.35441 0.144402,0.42346 0.126643,0.92941 -0.03946,1.12433 -0.166107,0.19493 -0.284254,-0.15154 -0.262549,-0.76992 z m 53.323152,-18.81789 c 0.34367,-0.16273 0.90604,-0.16273 1.24971,0 0.34367,0.16274 0.0625,0.29588 -0.62485,0.29588 -0.68734,0 -0.96853,-0.13314 -0.62486,-0.29588 z"
       id="path50" /><path
       style="fill:#6dbaca"
       d="m 106.92899,259.08989 c 0.89847,-0.13055 2.24816,-0.12786 2.99931,0.006 0.75115,0.13385 0.016,0.24067 -1.63358,0.23738 -1.64962,-0.003 -2.26419,-0.11281 -1.36573,-0.24337 z"
       id="path49" /><path
       style="fill:#69b8c8"
       d="m 123.9161,229.20933 c 0.34367,-0.16273 0.90604,-0.16273 1.24971,0 0.34367,0.16274 0.0625,0.29588 -0.62486,0.29588 -0.68734,0 -0.96852,-0.13314 -0.62485,-0.29588 z"
       id="path48" /><path
       style="fill:#66b8c8"
       d="m 102.92097,259.12653 c 0.34367,-0.16274 0.90604,-0.16274 1.24971,0 0.34367,0.16273 0.0625,0.29588 -0.62486,0.29588 -0.68734,0 -0.96852,-0.13315 -0.62485,-0.29588 z"
       id="path47" /><path
       style="fill:#27dfdf"
       d="m 147.53562,209.78744 v -14.53088 l 28.24345,-0.11255 28.24345,-0.11255 v 14.64344 14.64343 h -10.74751 c -6.83175,0 -10.74751,-0.21373 -10.74751,-0.58661 0,-0.84468 -3.67513,-0.72387 -4.46146,0.14665 -0.52988,0.58661 -0.70817,0.58661 -0.89146,0 -0.27197,-0.8704 -4.14487,-1.00743 -4.14487,-0.14665 0,0.35196 -1.99954,0.58661 -4.99884,0.58661 -2.99931,0 -4.99885,-0.23465 -4.99885,-0.58661 0,-0.32264 -0.77404,-0.58662 -1.72009,-0.58662 -0.94605,0 -1.85912,0.26398 -2.02904,0.58662 -0.17683,0.33576 -2.75455,0.58661 -6.02811,0.58661 h -5.71916 z"
       id="path46" /><path
       style="fill:#65b6c6"
       d="m 100.17161,259.11066 c 0.48114,-0.14755 1.26845,-0.14755 1.74959,0 0.48114,0.14755 0.0875,0.26827 -0.8748,0.26827 -0.96227,0 -1.355931,-0.12072 -0.87479,-0.26827 z"
       id="path45" /><path
       style="fill:#61b5c5"
       d="m 96.681933,259.10851 c 0.486371,-0.14873 1.161215,-0.13895 1.499652,0.0217 0.338438,0.16069 -0.0595,0.28238 -0.884311,0.27042 -0.824808,-0.012 -1.101712,-0.14343 -0.615341,-0.29216 z"
       id="path44" /><path
       style="fill:#e48d6a"
       d="m 202.83995,258.53312 c 0.31186,-0.26654 0.69082,-1.01257 0.84213,-1.65784 0.21691,-0.92509 0.25558,-0.87278 0.1828,0.24735 -0.0508,0.78132 -0.42973,1.52735 -0.84213,1.65785 -0.49544,0.15676 -0.55746,0.0728 -0.1828,-0.24736 z"
       id="path43" /><path
       style="fill:#5cb3c4"
       d="m 92.173463,259.09487 c 0.756075,-0.13441 1.993288,-0.13441 2.749362,0 0.756075,0.1344 0.137468,0.24437 -1.374681,0.24437 -1.512149,0 -2.130756,-0.10997 -1.374681,-0.24437 z m 36.741477,-29.88554 c 0.34367,-0.16273 0.90604,-0.16273 1.24971,0 0.34367,0.16274 0.0625,0.29588 -0.62486,0.29588 -0.68734,0 -0.96852,-0.13314 -0.62485,-0.29588 z"
       id="path42" /><path
       style="fill:#e38964"
       d="m 203.60156,254.82214 c 0,-0.8066 0.11346,-1.13656 0.25214,-0.73327 0.13867,0.4033 0.13867,1.06323 0,1.46653 -0.13868,0.4033 -0.25214,0.0733 -0.25214,-0.73326 z"
       id="path41" /><path
       style="fill:#59b1c2"
       d="m 87.924449,259.10104 c 0.618606,-0.13982 1.630871,-0.13982 2.249478,0 0.618606,0.13982 0.112474,0.25422 -1.124739,0.25422 -1.237213,0 -1.743346,-0.1144 -1.124739,-0.25422 z"
       id="path40" /><path
       style="fill:#c2f117"
       d="M 5.0686675,277.69999 V 265.38115 H 34.061942 63.055217 v 12.31884 12.31885 H 34.061942 5.0686675 Z m 57.4866655,0 V 265.96776 H 34.061942 5.5685516 v 11.73223 11.73224 H 34.061942 62.555333 Z M 4.5687835,243.96982 V 229.59783 H 33.312116 62.055449 v 14.37199 14.37199 H 33.312116 4.5687835 Z m 56.9867815,0 V 230.18445 H 33.312116 5.0686675 v 13.78537 13.78537 H 33.312116 61.555565 Z M 4.5687835,209.35973 V 194.98774 H 33.312116 62.055449 v 14.37199 14.37199 H 33.312116 4.5687835 Z m 56.9867815,0 V 195.57436 H 33.312116 5.0686675 v 13.78537 13.78537 H 33.312116 61.555565 Z M 5.5685516,173.86972 V 159.20443 H 34.311884 63.055217 v 14.66529 14.6653 H 34.311884 5.5685516 Z m 56.9867814,0 V 159.79104 H 34.311884 6.0684356 v 14.07868 14.07868 H 34.311884 62.555333 Z M 6.0684356,59.77375 V 45.401764 H 35.06171 64.054985 V 59.77375 74.145736 H 35.06171 6.0684356 Z m 57.4866654,0 V 45.988376 H 35.06171 6.5683197 V 59.77375 73.559125 H 35.06171 63.555101 Z M 6.0684356,24.577049 V 10.205063 H 35.06171 64.054985 V 24.577049 38.949035 H 35.06171 6.0684356 Z m 57.4866654,0 V 10.791675 H 35.06171 6.5683197 V 24.577049 38.362424 H 35.06171 63.555101 Z"
       id="path39" /><path
       style="fill:#d82ec4"
       d="m 68.553942,209.35973 v -14.37199 h 35.241828 35.24182 v 14.37199 14.37199 H 103.79577 68.553942 Z"
       id="path38" /><path
       style="fill:#55b0c1"
       d="m 90.18344,229.77793 c 0.486371,-0.14873 1.161215,-0.13895 1.499653,0.0217 0.338437,0.16069 -0.0595,0.28238 -0.884311,0.27043 -0.824809,-0.012 -1.101712,-0.14343 -0.615342,-0.29216 z m 2.989791,0.002 c 0.481138,-0.14755 1.268456,-0.14755 1.749594,0 0.481139,0.14755 0.08748,0.26827 -0.874797,0.26827 -0.962277,0 -1.355935,-0.12072 -0.874797,-0.26827 z m 38.772259,-0.58297 c 0.36085,-0.16945 0.792,-0.14861 0.95811,0.0463 0.1661,0.19493 -0.12914,0.33357 -0.6561,0.3081 -0.58234,-0.0282 -0.70079,-0.16715 -0.30201,-0.35441 z"
       id="path37" /><path
       style="fill:#54afc1"
       d="m 82.675666,259.11066 c 0.481138,-0.14755 1.268456,-0.14755 1.749594,0 0.481139,0.14755 0.08748,0.26827 -0.874797,0.26827 -0.962277,0 -1.355935,-0.12072 -0.874797,-0.26827 z m -12.7158,-29.32694 c 0.360853,-0.16945 0.792003,-0.14861 0.958111,0.0463 0.166107,0.19493 -0.129137,0.33357 -0.656098,0.3081 -0.582337,-0.0281 -0.700787,-0.16715 -0.302013,-0.35441 z m 16.224502,-0.006 c 0.486371,-0.14873 1.161215,-0.13895 1.499652,0.0217 0.338438,0.16069 -0.0595,0.28238 -0.884311,0.27043 -0.824808,-0.012 -1.101712,-0.14343 -0.615341,-0.29216 z m 10.238109,0.018 c 0.343671,-0.16273 0.90604,-0.16273 1.24971,0 0.343671,0.16274 0.06249,0.29588 -0.624855,0.29588 -0.68734,0 -0.968525,-0.13314 -0.624855,-0.29588 z"
       id="path36" /><path
       style="fill:#51aec0"
       d="m 80.426188,259.12653 c 0.34367,-0.16274 0.90604,-0.16274 1.24971,0 0.34367,0.16273 0.06249,0.29588 -0.624855,0.29588 -0.687341,0 -0.968525,-0.13315 -0.624855,-0.29588 z M 68.093522,235.70837 c 0.02399,-0.68337 0.142437,-0.82237 0.302013,-0.35441 0.144402,0.42346 0.126643,0.92941 -0.03946,1.12434 -0.166107,0.19493 -0.284254,-0.15154 -0.262549,-0.76993 z m 3.365996,-5.92465 c 0.360853,-0.16945 0.792003,-0.14861 0.958111,0.0463 0.166107,0.19493 -0.129137,0.33357 -0.656098,0.3081 -0.582336,-0.0281 -0.700787,-0.16715 -0.302013,-0.35441 z m 11.497333,0 c 0.360854,-0.16945 0.792004,-0.14861 0.958111,0.0463 0.166107,0.19493 -0.129137,0.33357 -0.656098,0.3081 -0.582336,-0.0281 -0.700787,-0.16715 -0.302013,-0.35441 z m 17.714639,-0.004 c 0.48114,-0.14755 1.26846,-0.14755 1.74959,0 0.48114,0.14755 0.0875,0.26827 -0.87479,0.26827 -0.96228,0 -1.35594,-0.12072 -0.8748,-0.26827 z"
       id="path35" /><path
       style="fill:#b8cd39"
       d="M 68.553942,59.77375 V 45.401764 h 34.741938 34.74194 V 59.77375 74.145736 H 103.29588 68.553942 Z"
       id="path34" /><path
       style="fill:#e1825a"
       d="m 203.60156,252.47569 c 0,-0.80659 0.11346,-1.13656 0.25214,-0.73327 0.13867,0.4033 0.13867,1.06324 0,1.46653 -0.13868,0.4033 -0.25214,0.0733 -0.25214,-0.73326 z"
       id="path33" /><path
       style="fill:#50adbf"
       d="m 77.186455,259.10851 c 0.486371,-0.14873 1.161215,-0.13895 1.499652,0.0217 0.338438,0.16069 -0.0595,0.28238 -0.88431,0.27042 -0.824809,-0.012 -1.101713,-0.14343 -0.615342,-0.29216 z m 3.499189,-29.33058 c 0.486371,-0.14873 1.161214,-0.13895 1.499652,0.0217 0.338437,0.16069 -0.0595,0.28238 -0.884311,0.27043 -0.824809,-0.012 -1.101712,-0.14343 -0.615341,-0.29216 z m 25.734516,0.018 c 0.34367,-0.16273 0.90604,-0.16273 1.24971,0 0.34367,0.16274 0.0625,0.29588 -0.62486,0.29588 -0.68734,0 -0.96852,-0.13314 -0.62485,-0.29588 z m 28.52463,-0.59883 c 0.36085,-0.16945 0.792,-0.14861 0.95811,0.0463 0.16611,0.19493 -0.12914,0.33357 -0.6561,0.3081 -0.58233,-0.0282 -0.70078,-0.16715 -0.30201,-0.35441 z"
       id="path32" /><path
       style="fill:#4eacbe"
       d="m 73.184742,259.09409 c 0.759855,-0.13484 1.884594,-0.13123 2.499421,0.008 0.614826,0.13923 -0.0069,0.24955 -1.381555,0.24515 -1.374681,-0.004 -1.877721,-0.11833 -1.117866,-0.25316 z m 0.243069,-29.29815 c 0.34367,-0.16273 0.90604,-0.16273 1.24971,0 0.343671,0.16274 0.06249,0.29588 -0.624855,0.29588 -0.68734,0 -0.968525,-0.13314 -0.624855,-0.29588 z m 4.998841,0 c 0.34367,-0.16273 0.906039,-0.16273 1.24971,0 0.34367,0.16274 0.06248,0.29588 -0.624855,0.29588 -0.687341,0 -0.968526,-0.13314 -0.624855,-0.29588 z m 25.993968,0 c 0.34367,-0.16273 0.90604,-0.16273 1.24971,0 0.34367,0.16274 0.0625,0.29588 -0.62485,0.29588 -0.68735,0 -0.96853,-0.13314 -0.62486,-0.29588 z m 32.02382,-0.59883 c 0.36086,-0.16945 0.79201,-0.14861 0.95811,0.0463 0.16611,0.19493 -0.12913,0.33357 -0.65609,0.3081 -0.58234,-0.0282 -0.70079,-0.16715 -0.30202,-0.35441 z"
       id="path31" /><path
       style="fill:#e07d55"
       d="m 203.60156,250.12924 c 0,-0.80659 0.11346,-1.13656 0.25214,-0.73326 0.13867,0.40329 0.13867,1.06323 0,1.46653 -0.13868,0.40329 -0.25214,0.0733 -0.25214,-0.73327 z"
       id="path30" /><path
       style="fill:#49aabd"
       d="m 67.929729,254.23552 c 0.06909,-2.74241 0.261745,-9.27579 0.428127,-14.51864 l 0.302514,-9.53243 3.321003,0.009 c 14.57233,0.0374 64.180047,-0.6645 65.620567,-0.92842 l 1.81359,-0.33227 -0.35939,2.23927 c -0.42166,2.62716 -5.56402,14.85306 -6.72155,15.9804 -0.43739,0.42598 -0.79526,0.96044 -0.79526,1.18768 0,0.22724 -1.01227,1.70702 -2.24948,3.2884 -1.23721,1.58138 -2.24948,3.05867 -2.24948,3.28286 0,0.22419 -0.67565,1.2005 -1.50146,2.16958 l -1.50145,1.76195 -28.116674,0.18966 -28.11667,0.18965 z"
       id="path29" /><path
       style="fill:#e0784e"
       d="m 203.60156,247.7828 c 0,-0.8066 0.11346,-1.13656 0.25214,-0.73327 0.13867,0.4033 0.13867,1.06323 0,1.46653 -0.13868,0.4033 -0.25214,0.0733 -0.25214,-0.73326 z"
       id="path28" /><path
       style="fill:#967097"
       d="m 5.0686675,129.58054 v -14.37198 l 29.1182455,0.0463 c 16.015036,0.0255 28.837061,0.17945 28.493391,0.34219 -0.741932,0.35131 -0.844479,1.95794 -0.124971,1.95794 0.274936,0 0.499884,0.65994 0.499884,1.46653 0,0.80659 -0.224948,1.46653 -0.499884,1.46653 -0.274936,0 -0.499884,0.39596 -0.499884,0.87992 0,0.48395 0.224948,0.87992 0.499884,0.87992 0.274936,0 0.499884,0.52795 0.499884,1.17322 0,0.64527 -0.224948,1.17322 -0.499884,1.17322 -0.274936,0 -0.499884,0.52795 -0.499884,1.17323 0,0.64527 0.224948,1.17322 0.499884,1.17322 0.65017,0 0.65017,2.16821 0,2.63975 -0.64813,0.47006 -0.64813,3.04961 0,3.51967 0.274936,0.1994 0.499884,2.72275 0.499884,5.60743 v 5.24489 H 34.061942 5.0686675 Z"
       id="path27" /><path
       style="fill:#de7449"
       d="m 203.62008,245.14304 c 0.0102,-0.96791 0.12223,-1.29285 0.24897,-0.7221 0.12674,0.57076 0.1184,1.36268 -0.0185,1.75984 -0.13693,0.39715 -0.24063,-0.0698 -0.23045,-1.03774 z"
       id="path26" /><path
       style="fill:#888888"
       d="m 181.06732,261.51929 c 0.024,-0.68337 0.14243,-0.82237 0.30201,-0.35442 0.1444,0.42346 0.12664,0.92942 -0.0395,1.12434 -0.1661,0.19493 -0.28425,-0.15154 -0.26254,-0.76992 z m -17.41944,-34.2679 c 0,-1.12923 0.10288,-1.59119 0.22861,-1.02657 0.12574,0.56461 0.12574,1.48852 0,2.05314 -0.12573,0.56461 -0.22861,0.10265 -0.22861,-1.02657 z M 64.179956,216.27221 c 0.756075,-0.1344 1.993288,-0.1344 2.749362,0 0.756075,0.13441 0.137469,0.24438 -1.374681,0.24438 -1.512149,0 -2.130755,-0.10997 -1.374681,-0.24438 z m -0.249942,-5.85994 c 0.618607,-0.13982 1.630872,-0.13982 2.249478,0 0.618607,0.13982 0.112474,0.25422 -1.124739,0.25422 -1.237213,0 -1.743345,-0.1144 -1.124739,-0.25422 z m 79.231616,-1.76601 c 0.75608,-0.13441 1.99329,-0.13441 2.74937,0 0.75607,0.13441 0.13746,0.24438 -1.37469,0.24438 -1.51214,0 -2.13075,-0.10997 -1.37468,-0.24438 z m -0.24994,-5.85994 c 0.61861,-0.13982 1.63087,-0.13982 2.24948,0 0.61861,0.13982 0.11247,0.25422 -1.12474,0.25422 -1.23721,0 -1.74334,-0.1144 -1.12474,-0.25422 z m 19.73643,-9.55841 c 0,-1.12923 0.10287,-1.59119 0.2286,-1.02657 0.12574,0.56461 0.12574,1.48853 0,2.05314 -0.12573,0.56461 -0.2286,0.10266 -0.2286,-1.02657 z M 66.633335,125.76757 c 0,-0.8066 0.11346,-1.13656 0.252134,-0.73327 0.138674,0.4033 0.138674,1.06323 0,1.46653 -0.138674,0.4033 -0.252134,0.0733 -0.252134,-0.73326 z m -2.446505,-3.94062 c 0.759854,-0.13483 1.884594,-0.13123 2.49942,0.008 0.614826,0.13924 -0.0069,0.24956 -1.381555,0.24516 -1.374681,-0.004 -1.87772,-0.11833 -1.117865,-0.25317 z m 2.40704,-2.26769 c 0.02399,-0.68337 0.142437,-0.82237 0.302013,-0.35441 0.144402,0.42346 0.126643,0.92941 -0.03946,1.12434 -0.166108,0.19492 -0.284255,-0.15154 -0.262549,-0.76993 z m 0.996693,-4.0574 c -0.09402,-1.6586 -0.125768,-1.68391 -0.551851,-0.43996 -0.367278,1.07227 -0.80678,1.30138 -2.342763,1.22127 l -1.890674,-0.0986 1.823356,-0.22653 c 1.364138,-0.16947 1.895078,-0.54837 2.108134,-1.50445 0.393487,-1.76575 1.480694,-0.45438 1.177748,1.42058 -0.193436,1.1972 -0.237874,1.14613 -0.32395,-0.3723 z m 99.038097,-1.17322 c 0.0102,-0.96791 0.12223,-1.29286 0.24897,-0.7221 0.12674,0.57075 0.11841,1.36268 -0.0185,1.75983 -0.13693,0.39716 -0.24063,-0.0698 -0.23045,-1.03773 z m -6.05659,-1.80872 c 0.024,-0.68337 0.14244,-0.82237 0.30201,-0.35441 0.1444,0.42346 0.12665,0.92941 -0.0395,1.12434 -0.16611,0.19492 -0.28426,-0.15155 -0.26255,-0.76993 z m -98.39165,-1.5643 c 0.146692,-2.23785 1.078979,-2.57254 1.225494,-0.43996 l 0.100754,1.46653 -0.404702,-1.46653 c -0.399383,-1.44725 -0.40892,-1.44147 -0.725609,0.43996 l -0.320908,1.90649 z m 5.392,0.14665 c -0.110011,-1.91571 -0.144693,-1.95498 -0.51813,-0.58661 -0.372573,1.3652 -0.403671,1.37772 -0.450056,0.18127 -0.02741,-0.70689 0.176708,-1.44955 0.453586,-1.65036 0.662478,-0.48047 1.132557,1.0314 0.853902,2.74631 -0.164621,1.01311 -0.251634,0.83601 -0.339302,-0.69061 z m -3.47797,-0.34219 c 0.02399,-0.68337 0.142437,-0.82237 0.302013,-0.35441 0.144402,0.42346 0.126643,0.92941 -0.03946,1.12434 -0.166107,0.19493 -0.284254,-0.15154 -0.262548,-0.76993 z m 0.999768,0 c 0.02399,-0.68337 0.142437,-0.82237 0.302013,-0.35441 0.144402,0.42346 0.126643,0.92941 -0.03946,1.12434 -0.166108,0.19493 -0.284255,-0.15154 -0.262549,-0.76993 z m 1.539117,-6.11054 c 0,-0.80659 0.11346,-1.13656 0.252134,-0.73326 0.138674,0.4033 0.138674,1.06323 0,1.46653 -0.138674,0.4033 -0.252134,0.0733 -0.252134,-0.73327 z M 144.11536,92.330699 c 0,-0.806591 0.11346,-1.136561 0.25213,-0.733265 0.13868,0.403296 0.13868,1.063234 0,1.466529 -0.13867,0.403296 -0.25213,0.07333 -0.25213,-0.733264 z m -4.23668,-3.930792 c -0.13643,-0.257838 0.95134,-0.379518 2.41727,-0.270401 2.58915,0.192724 2.67204,0.150806 2.90012,-1.466529 l 0.23478,-1.664924 -0.0724,1.759835 c -0.0696,1.692561 -0.17097,1.766543 -2.65206,1.935325 -1.41884,0.09652 -2.69133,-0.03547 -2.82776,-0.293306 z m 4.19722,-2.277515 c 0.024,-0.68337 0.14243,-0.822371 0.30201,-0.354412 0.1444,0.423461 0.12664,0.929413 -0.0395,1.124339 -0.1661,0.194927 -0.28425,-0.151541 -0.26254,-0.769927 z m -4.21127,-3.324133 c 0.12745,-0.241978 1.09201,-0.439959 2.14346,-0.439959 1.52186,0 1.96774,-0.251306 2.18633,-1.232246 0.37572,-1.686017 1.35559,-0.830149 1.28252,1.120213 -0.0588,1.569609 -0.061,1.568581 -0.3941,-0.181273 -0.29874,-1.569571 -0.36679,-1.624141 -0.62944,-0.504742 -0.23483,1.000778 -0.75304,1.297936 -2.5575,1.466529 -1.24465,0.11629 -2.15872,0.01346 -2.03127,-0.228522 z m -0.20218,-5.279505 c 0.14669,-2.237846 1.07897,-2.572543 1.22549,-0.439959 l 0.10075,1.466529 -0.4047,-1.466529 c -0.39938,-1.447254 -0.40892,-1.441472 -0.72561,0.439959 l -0.32091,1.906488 z m 5.392,0.146653 c -0.11002,-1.915714 -0.1447,-1.954979 -0.51814,-0.586612 -0.37257,1.365196 -0.40367,1.377721 -0.45005,0.181273 -0.0274,-0.706891 0.17671,-1.449554 0.45359,-1.650363 0.66247,-0.480469 1.13255,1.031393 0.8539,2.746304 -0.16462,1.013117 -0.25164,0.836013 -0.3393,-0.690602 z m 17.22775,1.173223 c -0.16992,-0.322637 -0.0707,-0.586612 0.22044,-0.586612 0.29116,0 0.52938,0.263975 0.52938,0.586612 0,0.322636 -0.0992,0.586612 -0.22044,0.586612 -0.12124,0 -0.35946,-0.263976 -0.52938,-0.586612 z m 16.28569,-0.928802 c 0.024,-0.683369 0.14244,-0.82237 0.30202,-0.354411 0.1444,0.42346 0.12664,0.929413 -0.0395,1.124339 -0.1661,0.194926 -0.28425,-0.151541 -0.26255,-0.769928 z m -36.99141,-0.586612 c 0.024,-0.683369 0.14243,-0.82237 0.30201,-0.354411 0.1444,0.42346 0.12664,0.929413 -0.0395,1.124339 -0.1661,0.194926 -0.28425,-0.151541 -0.26254,-0.769928 z m 0.99976,0 c 0.024,-0.683369 0.14244,-0.82237 0.30202,-0.354411 0.1444,0.42346 0.12664,0.929413 -0.0395,1.124339 -0.16611,0.194926 -0.28425,-0.151541 -0.26255,-0.769928 z m 1.53912,-6.110538 c 0,-0.806591 0.11346,-1.13656 0.25213,-0.733265 0.13868,0.403296 0.13868,1.063234 0,1.46653 -0.13867,0.403295 -0.25213,0.07333 -0.25213,-0.733265 z m 20.16637,-27.570749 c -0.16992,-0.322637 -0.0707,-0.586612 0.22045,-0.586612 0.29116,0 0.52938,0.263975 0.52938,0.586612 0,0.322636 -0.0992,0.586612 -0.22044,0.586612 -0.12124,0 -0.35947,-0.263976 -0.52939,-0.586612 z m 16.2857,-2.102025 c 0.024,-0.683369 0.14244,-0.822371 0.30201,-0.354412 0.14441,0.423461 0.12665,0.929413 -0.0395,1.12434 -0.16611,0.194926 -0.28425,-0.151542 -0.26255,-0.769928 z M 162.2822,7.2720041 c -0.16992,-0.3226364 -0.0707,-0.5866116 0.22044,-0.5866116 0.29116,0 0.52938,0.2639752 0.52938,0.5866116 0,0.3226365 -0.0992,0.5866117 -0.22044,0.5866117 -0.12124,0 -0.35946,-0.2639752 -0.52938,-0.5866117 z m 16.37229,-2.0531409 c 0.006,-1.2905457 0.10792,-1.7494246 0.22749,-1.019731 0.11957,0.7296936 0.11503,1.7855947 -0.0101,2.3464467 -0.12512,0.5608521 -0.22295,-0.03617 -0.2174,-1.3267157 z"
       id="path25" /><path
       style="fill:#dd6e41"
       d="m 191.16002,258.5219 c 0.48637,-0.14873 1.16121,-0.13895 1.49965,0.0217 0.33844,0.16068 -0.0595,0.28237 -0.88431,0.27042 -0.82481,-0.012 -1.10171,-0.14343 -0.61534,-0.29216 z m 12.44154,-17.19183 c 0,-0.80659 0.11346,-1.13656 0.25214,-0.73327 0.13867,0.4033 0.13867,1.06324 0,1.46653 -0.13868,0.4033 -0.25214,0.0733 -0.25214,-0.73326 z"
       id="path24" /><path
       style="fill:#838383"
       d="m 67.757051,130.90042 0.248654,-13.63872 35.765885,-0.15054 35.76588,-0.15054 v 13.78926 13.78926 H 103.52293 67.508397 Z"
       id="path23" /><path
       style="fill:#d43c76"
       d="m 75.427347,289.04372 c 0.343671,-0.16273 0.90604,-0.16273 1.24971,0 0.343671,0.16274 0.06249,0.29588 -0.624855,0.29588 -0.68734,0 -0.968525,-0.13314 -0.624855,-0.29588 z m 36.116623,-18.60455 c 0,-0.12181 0.39366,-0.58377 0.87479,-1.02657 0.79285,-0.72967 0.81053,-0.70892 0.18874,0.22148 -0.65303,0.97715 -1.06353,1.28789 -1.06353,0.80509 z"
       id="path22" /><path
       style="fill:#7fdd29"
       d="m 68.553942,174.16303 v -13.78538 h 35.491768 35.49176 v 2.93306 2.93306 h -4.74889 -4.7489 v 2.93306 2.93306 h 4.7489 4.74889 v 7.91926 7.91925 H 104.04571 68.553942 Z"
       id="path21" /><path
       style="fill:#dc6a3c"
       d="m 189.43215,258.52769 c 0.36085,-0.16945 0.792,-0.14861 0.95811,0.0463 0.16611,0.19492 -0.12913,0.33357 -0.6561,0.3081 -0.58233,-0.0281 -0.70078,-0.16715 -0.30201,-0.35442 z m 14.12995,-19.29965 c 0.024,-0.68337 0.14243,-0.82237 0.30201,-0.35441 0.1444,0.42346 0.12664,0.92941 -0.0395,1.12434 -0.16611,0.19493 -0.28426,-0.15154 -0.26255,-0.76993 z"
       id="path20" /><path
       style="fill:#d33974"
       d="m 99.046869,279.22928 c 0,-0.1268 0.349105,-0.38775 0.775789,-0.57989 0.444862,-0.20033 0.645512,-0.10198 0.470382,0.23054 -0.293561,0.5574 -1.246171,0.82446 -1.246171,0.34935 z"
       id="path19" /><path
       style="fill:#dc6738"
       d="m 187.9325,258.52769 c 0.36085,-0.16945 0.792,-0.14861 0.95811,0.0463 0.16611,0.19492 -0.12914,0.33357 -0.6561,0.3081 -0.58233,-0.0281 -0.70078,-0.16715 -0.30201,-0.35442 z m 15.66906,-21.3039 c 0,-0.8066 0.11346,-1.13656 0.25214,-0.73327 0.13867,0.4033 0.13867,1.06323 0,1.46653 -0.13868,0.4033 -0.25214,0.0733 -0.25214,-0.73326 z"
       id="path18" /><path
       style="fill:#d23470"
       d="m 68.054058,277.73461 v -12.35346 l 24.619289,0.0463 c 13.540603,0.0255 24.290483,0.19808 23.888603,0.38358 -0.40187,0.1855 -2.69671,2.25751 -5.09965,4.60446 -2.40293,2.34694 -5.50458,4.87853 -6.89255,5.62575 -1.38797,0.74721 -2.52358,1.57368 -2.52358,1.83658 0,0.26291 -0.22495,0.31487 -0.49988,0.11547 -0.27494,-0.1994 -0.49988,-0.039 -0.49988,0.35645 0,0.39545 -0.1285,0.56821 -0.28556,0.38391 -0.34905,-0.40961 -10.815072,5.36666 -11.329095,6.2526 -0.201992,0.34815 -0.370703,0.43169 -0.374913,0.18566 -0.0042,-0.24604 -1.528873,0.45165 -3.388141,1.5504 -3.190216,1.8853 -3.756021,2.01808 -10.052539,2.35899 -3.66963,0.19869 -6.872315,0.50649 -7.117079,0.68401 -0.25473,0.18474 -0.445025,-4.95966 -0.445025,-12.03071 z"
       id="path17" /><path
       style="fill:#26e06d"
       d="M 146.53585,94.970451 V 80.598465 h 28.74333 28.74334 v 14.371986 14.371989 h -28.74334 -28.74333 z"
       id="path16" /><path
       style="fill:#da6131"
       d="m 203.5621,232.77531 c 0.024,-0.68337 0.14243,-0.82237 0.30201,-0.35441 0.1444,0.42346 0.12664,0.92942 -0.0395,1.12434 -0.16611,0.19493 -0.28426,-0.15154 -0.26255,-0.76993 z"
       id="path15" /><path
       style="fill:#da602e"
       d="m 203.5621,231.01548 c 0.024,-0.68337 0.14243,-0.82237 0.30201,-0.35441 0.1444,0.42346 0.12664,0.92941 -0.0395,1.12434 -0.16611,0.19492 -0.28426,-0.15155 -0.26255,-0.76993 z"
       id="path14" /><path
       style="fill:#da5e2c"
       d="m 178.64614,254.8063 c -2.27221,-1.92711 -4.25032,-3.50383 -4.3958,-3.50383 -0.14547,0 -0.87099,-0.65994 -1.61226,-1.46653 -0.74126,-0.80659 -1.61249,-1.46653 -1.93606,-1.46653 -0.32357,0 -0.66329,-0.23126 -0.75493,-0.51391 -0.18839,-0.58101 -20.94943,-17.97907 -21.89637,-18.34948 -0.33673,-0.13172 12.13787,-0.28056 27.72135,-0.33074 25.1644,-0.081 28.301,0.008 28.04208,0.80024 -0.16033,0.49032 -0.29152,7.07332 -0.29152,14.62889 v 13.7374 l -10.37259,-0.0158 -10.3726,-0.0158 z"
       id="path13" /><path
       style="fill:#b45252"
       d="m 146.53585,59.480444 v -14.07868 h 28.74333 28.74334 v 14.07868 14.078681 h -28.74334 -28.74333 z"
       id="path12" /><path
       style="fill:#be8f00"
       d="M 67.554174,24.870355 V 10.205063 H 102.796 138.03782 V 24.870355 39.535647 H 102.796 67.554174 Z"
       id="path11" /><path
       style="fill:#676767"
       d="m 66.360994,191.94735 c 0.144371,-0.27413 0.471898,-0.34654 0.727837,-0.16092 0.654039,0.47435 0.580394,0.65933 -0.262494,0.65933 -0.400311,0 -0.609715,-0.22429 -0.465343,-0.49841 z"
       id="path10" /><path
       style="fill:#fe0808"
       d="M 146.53585,23.990438 V 10.205063 h 28.74333 28.74334 v 13.785375 13.785374 h -28.74334 -28.74333 z"
       id="path9" /><path
       style="fill:#464646"
       d="m 90.588304,287.91681 c 0.02399,-0.68337 0.142437,-0.82237 0.302014,-0.35441 0.144401,0.42346 0.126642,0.92941 -0.03946,1.12434 -0.166107,0.19493 -0.284254,-0.15154 -0.262549,-0.76993 z m 21.455546,-13.40856 c 0,-0.78755 0.18425,-1.56554 0.40943,-1.72886 0.22519,-0.16332 0.31214,0.48104 0.19321,1.43191 -0.26221,2.09649 -0.60264,2.26423 -0.60264,0.29695 z M 164.61061,227.838 c 0,-0.80659 0.11346,-1.13656 0.25213,-0.73327 0.13867,0.4033 0.13867,1.06324 0,1.46653 -0.13867,0.4033 -0.25213,0.0733 -0.25213,-0.73326 z m 17.49594,0 c 0,-0.80659 0.11346,-1.13656 0.25213,-0.73327 0.13868,0.4033 0.13868,1.06324 0,1.46653 -0.13867,0.4033 -0.25213,0.0733 -0.25213,-0.73326 z m -4.53842,-1.51542 c 0.024,-0.68336 0.14243,-0.82237 0.30201,-0.35441 0.1444,0.42346 0.12664,0.92942 -0.0395,1.12434 -0.16611,0.19493 -0.28426,-0.15154 -0.26255,-0.76993 z M 67.133219,220.21205 c 0,-0.80659 0.11346,-1.13656 0.252134,-0.73327 0.138674,0.4033 0.138674,1.06324 0,1.46653 -0.138674,0.4033 -0.252134,0.0733 -0.252134,-0.73326 z m 0.861433,-5.7379 c -0.164684,-1.16572 -0.09132,-1.71297 0.185999,-1.38753 0.251865,0.29556 0.374236,1.16177 0.271937,1.92492 -0.157403,1.17421 -0.227808,1.09159 -0.457936,-0.53739 z m -4.064638,0.63101 c 0.618607,-0.13982 1.630872,-0.13982 2.249478,0 0.618607,0.13982 0.112474,0.25422 -1.124739,0.25422 -1.237213,0 -1.743345,-0.1144 -1.124739,-0.25422 z m 1.468867,-3.51909 c 2.365234,-0.21158 2.613691,-0.37146 2.821717,-1.81578 0.20905,-1.45144 0.222065,-1.43673 0.155757,0.17605 -0.0709,1.72447 -0.127613,1.76096 -2.821718,1.81578 l -2.749362,0.0559 z m 76.453579,-3.81724 c 0.13389,-0.25423 1.12995,-0.46224 2.21347,-0.46224 1.38203,0 1.97004,-0.2523 1.97004,-0.8453 0,-0.46491 0.22191,-1.00624 0.49315,-1.20296 0.31429,-0.22794 0.33955,0.13181 0.0696,0.99195 -0.33286,1.06077 -0.91213,1.41716 -2.70662,1.6652 -1.25572,0.17357 -2.17358,0.10757 -2.03968,-0.14665 z m -73.682428,-2.22208 c 0,-1.12922 0.102874,-1.59118 0.228608,-1.02657 0.125735,0.56462 0.125735,1.48853 0,2.05314 -0.125734,0.56462 -0.228608,0.10266 -0.228608,-1.02657 z m -4.536002,-0.58661 c 0,-0.80659 0.113461,-1.13656 0.252135,-0.73326 0.138674,0.40329 0.138674,1.06323 0,1.46653 -0.138674,0.40329 -0.252135,0.0733 -0.252135,-0.73327 z m 1.786245,0.047 c -0.217437,-0.97574 -0.15238,-1.20477 0.218568,-0.76947 0.290484,0.34088 0.429797,0.96604 0.309585,1.38925 -0.124796,0.43934 -0.351389,0.17343 -0.528153,-0.61978 z m 76.438225,-1.08439 c -0.13056,-0.24792 0.69971,-0.36594 1.84507,-0.26228 3.3639,0.30447 3.77327,0.57192 0.98722,0.64498 -1.42719,0.0374 -2.70172,-0.13479 -2.83229,-0.3827 z m 4.21693,-2.23789 c 0.024,-0.68336 0.14244,-0.82237 0.30201,-0.35441 0.14441,0.42346 0.12665,0.92942 -0.0395,1.12434 -0.16611,0.19493 -0.28425,-0.15154 -0.26255,-0.76993 z M 67.133219,199.094 c 0,-0.8066 0.11346,-1.13656 0.252134,-0.73327 0.138674,0.4033 0.138674,1.06323 0,1.46653 -0.138674,0.4033 -0.252134,0.0733 -0.252134,-0.73326 z m 74.519771,-1.17323 c 0,-1.12922 0.10287,-1.59118 0.2286,-1.02657 0.12574,0.56462 0.12574,1.48853 0,2.05314 -0.12573,0.56462 -0.2286,0.10266 -0.2286,-1.02657 z m 1.88356,-0.25868 c 0,-0.46492 0.20397,-0.99323 0.45326,-1.17404 0.2493,-0.1808 0.33554,0.19958 0.19164,0.8453 -0.30523,1.36973 -0.6449,1.54288 -0.6449,0.32874 z m 2.57835,-0.32793 c 0,-0.80659 0.11346,-1.13656 0.25213,-0.73326 0.13867,0.40329 0.13867,1.06323 0,1.46653 -0.13867,0.40329 -0.25213,0.0733 -0.25213,-0.73327 z m 17.49594,-3.51967 c 0,-0.80659 0.11346,-1.13656 0.25213,-0.73326 0.13868,0.40329 0.13868,1.06323 0,1.46653 -0.13867,0.40329 -0.25213,0.0733 -0.25213,-0.73327 z m 16.49617,0 c 0,-0.80659 0.11346,-1.13656 0.25214,-0.73326 0.13867,0.40329 0.13867,1.06323 0,1.46653 -0.13868,0.40329 -0.25214,0.0733 -0.25214,-0.73327 z m 1.06381,-1.46653 c 0.004,-1.61318 0.10084,-2.2035 0.21574,-1.31181 0.1149,0.89169 0.11183,2.21156 -0.007,2.93306 -0.11865,0.7215 -0.21266,-0.008 -0.20891,-1.62125 z m -1.10327,-1.80872 c 0.024,-0.68337 0.14243,-0.82237 0.30201,-0.35441 0.1444,0.42346 0.12664,0.92941 -0.0395,1.12434 -0.16611,0.19493 -0.28426,-0.15154 -0.26255,-0.76993 z M 67.494768,120.02967 c -0.164684,-1.16572 -0.09132,-1.71297 0.185999,-1.38753 0.251865,0.29556 0.374236,1.16177 0.271937,1.92492 -0.157403,1.17421 -0.227808,1.09159 -0.457936,-0.53739 z m -3.558926,0.63011 c 0.621812,-0.14031 1.521604,-0.13498 1.999537,0.0118 0.477932,0.14683 -0.03082,0.26163 -1.130568,0.25512 -1.099745,-0.007 -1.490781,-0.12664 -0.868969,-0.26696 z m 0.250988,-3.52572 c 0.759854,-0.13483 1.884594,-0.13123 2.49942,0.008 0.614826,0.13924 -0.0069,0.24956 -1.381555,0.24515 -1.374681,-0.004 -1.87772,-0.11832 -1.117865,-0.25316 z m 101.46059,-3.68534 c 0,-1.12923 0.10287,-1.59118 0.22861,-1.02657 0.12573,0.56461 0.12573,1.48853 0,2.05314 -0.12574,0.56461 -0.22861,0.10266 -0.22861,-1.02657 z M 140.91216,87.223814 c 0.6186,-0.139821 1.63087,-0.139821 2.24947,0 0.61861,0.13982 0.11248,0.254219 -1.12474,0.254219 -1.23721,0 -1.74334,-0.114399 -1.12473,-0.254219 z m 0.24994,-3.525842 c 0.75607,-0.134407 1.99329,-0.134407 2.74936,0 0.75607,0.134407 0.13747,0.244377 -1.37468,0.244377 -1.51215,0 -2.13076,-0.10997 -1.37468,-0.244377 z m 28.48439,-5.445954 c 0,-1.129227 0.10288,-1.591184 0.22861,-1.02657 0.12573,0.564613 0.12573,1.488527 0,2.053141 -0.12573,0.564613 -0.22861,0.102657 -0.22861,-1.026571 z m 8.02515,-1.466529 c 0.004,-1.613182 0.10083,-2.203497 0.21573,-1.311811 0.1149,0.891687 0.11183,2.211563 -0.007,2.933059 -0.11866,0.721496 -0.21267,-0.0081 -0.20891,-1.621248 z m -19.09911,-0.04888 c 0.024,-0.683369 0.14244,-0.822371 0.30202,-0.354412 0.1444,0.423461 0.12664,0.929413 -0.0395,1.12434 -0.16611,0.194926 -0.28425,-0.151542 -0.26255,-0.769928 z m 0.99977,0 c 0.024,-0.683369 0.14244,-0.822371 0.30201,-0.354412 0.14441,0.423461 0.12665,0.929413 -0.0395,1.12434 -0.16611,0.194926 -0.28425,-0.151542 -0.26255,-0.769928 z m 12.07373,-33.681288 c 0,-1.129227 0.10287,-1.591184 0.22861,-1.02657 0.12573,0.564614 0.12573,1.488527 0,2.053141 -0.12574,0.564613 -0.22861,0.102657 -0.22861,-1.026571 z m -11.07396,-1.515413 c 0.024,-0.683369 0.14244,-0.822371 0.30201,-0.354412 0.1444,0.423461 0.12665,0.929413 -0.0395,1.12434 -0.16611,0.194926 -0.28426,-0.151542 -0.26255,-0.769928 z m 0.99977,0 c 0.024,-0.683369 0.14243,-0.822371 0.30201,-0.354412 0.1444,0.423461 0.12664,0.929413 -0.0395,1.12434 -0.16611,0.194926 -0.28426,-0.151542 -0.26255,-0.769928 z m 8.07465,-34.8545115 c 0,-1.1292275 0.10288,-1.5911842 0.22861,-1.0265705 0.12573,0.5646138 0.12573,1.4885272 0,2.0531409 -0.12573,0.5646137 -0.22861,0.102657 -0.22861,-1.0265704 z m 8.02515,-1.4665293 c 0.004,-1.6131821 0.10083,-2.2034968 0.21573,-1.3118105 0.1149,0.8916864 0.11183,2.2115626 -0.007,2.9330584 -0.11866,0.7214958 -0.21267,-0.00807 -0.20891,-1.6212479 z m -19.09911,-0.048884 c 0.024,-0.6833691 0.14244,-0.8223705 0.30202,-0.3544112 0.1444,0.4234603 0.12664,0.9294129 -0.0395,1.1243391 -0.16611,0.1949261 -0.28425,-0.1515414 -0.26255,-0.7699279 z m 0.99977,0 c 0.024,-0.6833691 0.14244,-0.8223705 0.30201,-0.3544112 0.14441,0.4234603 0.12665,0.9294129 -0.0395,1.1243391 -0.16611,0.1949261 -0.28425,-0.1515414 -0.26255,-0.7699279 z m 21.49502,0 c 0.024,-0.6833691 0.14243,-0.8223705 0.30201,-0.3544112 0.1444,0.4234603 0.12664,0.9294129 -0.0395,1.1243391 -0.1661,0.1949261 -0.28425,-0.1515414 -0.26254,-0.7699279 z"
       id="path8" /><path
       style="fill:#bb0000"
       d="M 5.0686675,95.557063 V 81.771688 H 33.562058 62.055449 V 95.557063 109.34244 H 33.562058 5.0686675 Z"
       id="path7" /><path
       style="fill:#1f3763"
       d="m 148.0355,173.86972 v -14.07868 h 27.74357 27.74356 v 14.07868 14.07868 H 175.77907 148.0355 Z"
       id="path6" /><path
       style="fill:#212934"
       d="m 147.53562,173.86972 v -14.66529 h 28.24345 28.24345 v 14.66529 14.6653 h -28.24345 -28.24345 z m 55.98701,0 V 159.79104 H 175.77907 148.0355 v 14.07868 14.07868 h 27.74357 27.74356 z"
       id="path5" /><path
       style="fill:#222222"
       d="m 160.33415,271.34503 c -0.1416,-0.26886 0.0602,-0.48884 0.4484,-0.48884 0.38821,0 0.58999,0.21998 0.44839,0.48884 -0.1416,0.26887 -0.34338,0.48884 -0.44839,0.48884 -0.10502,0 -0.3068,-0.21997 -0.4484,-0.48884 z"
       id="path4" /><path
       style="fill:#006500"
       d="m 67.90911,108.90248 c -0.112172,-0.24198 -0.241529,-6.4454 -0.287459,-13.785376 l -0.08351,-13.345416 h 34.749959 34.74995 v 13.785375 13.785377 h -34.46249 c -18.954377,0 -34.554279,-0.19798 -34.666452,-0.43996 z"
       id="path3" /><path
       style="fill:#101010"
       d="m 96.848881,284.25049 c -0.1416,-0.26887 0.06018,-0.48884 0.448393,-0.48884 0.388217,0 0.589994,0.21997 0.448394,0.48884 -0.1416,0.26886 -0.343377,0.48884 -0.448394,0.48884 -0.105016,0 -0.306793,-0.21998 -0.448393,-0.48884 z m 65.349999,-7.40461 c 0,-0.46976 0.19113,-0.7155 0.42473,-0.54608 0.2336,0.16942 0.2953,0.55377 0.13713,0.85411 -0.40422,0.76752 -0.56186,0.68109 -0.56186,-0.30803 z M 67.304232,153.33831 c 0.169919,-0.32263 0.408143,-0.58661 0.529385,-0.58661 0.121242,0 0.220441,0.26398 0.220441,0.58661 0,0.32264 -0.238224,0.58662 -0.529386,0.58662 -0.291162,0 -0.39036,-0.26398 -0.22044,-0.58662 z m 90.978898,0 c 0.16992,-0.32263 0.40814,-0.58661 0.52938,-0.58661 0.12124,0 0.22044,0.26398 0.22044,0.58661 0,0.32264 -0.23822,0.58662 -0.52938,0.58662 -0.29117,0 -0.39036,-0.26398 -0.22044,-0.58662 z M 142.14216,65.112421 c 0.35451,-0.451414 0.72332,-0.732952 0.81959,-0.62564 0.2965,0.330531 -0.45497,1.446392 -0.97407,1.446392 -0.26955,0 -0.20003,-0.369339 0.15448,-0.820752 z"
       id="path2" /><path
       style="fill:#000000"
       d="m 92.048492,290.60545 c -1.672087,-1.96219 -1.044152,-5.33921 0.974774,-5.24232 0.47529,0.0228 0.340019,0.24227 -0.349919,0.56771 -1.219163,0.57506 -1.421505,1.75457 -0.607267,3.53995 0.560104,1.22814 2.981716,1.59383 2.981716,0.45028 0,-0.37641 0.168357,-0.48682 0.374127,-0.24535 0.370674,0.43499 -1.191304,2.10295 -1.969322,2.10295 -0.222387,0 -0.854237,-0.52795 -1.404109,-1.17322 z m 4.038686,-4.00706 c -0.385922,-1.8324 -0.473988,-3.3438 -0.212704,-3.65042 0.261285,-0.30661 1.372535,0.44324 2.683947,1.81108 1.921139,2.0038 2.061079,2.29145 0.988332,2.03139 -1.503787,-0.36454 -2.311946,0.18471 -2.592366,1.76187 -0.13317,0.74898 -0.446756,0.0424 -0.867209,-1.95392 z m 1.534827,-2.03201 c -1.257116,-1.47522 -1.574128,-1.24435 -1.22444,0.89174 0.228137,1.39358 0.390631,1.51774 1.266471,0.96768 1.002366,-0.62952 1.002266,-0.63394 -0.04203,-1.85942 z m 3.303345,0.0148 c -1.324938,-2.3973 -1.918022,-3.94818 -1.509861,-3.94818 0.222088,0 0.835151,0.93993 1.362351,2.08874 0.82104,1.78908 1.14199,2.03471 2.23716,1.71215 1.41293,-0.41615 1.32958,-0.18815 -0.29288,0.80109 -0.90529,0.55197 -1.18703,0.44945 -1.79677,-0.6538 z m 69.70491,-0.54583 c -1.65614,-1.94347 0.30183,-5.61272 2.62925,-4.92723 0.69841,0.20571 1.26985,0.63519 1.26985,0.95442 0,0.33185 -0.44209,0.26426 -1.03233,-0.15783 -0.89608,-0.64081 -1.15997,-0.55547 -1.99953,0.64662 -1.1992,1.71703 -1.22681,2.779 -0.0924,3.55435 0.48114,0.32886 0.6386,0.60595 0.34992,0.61576 -0.28868,0.01 -0.79481,-0.29893 -1.12474,-0.68609 z m -66.99937,-2.87119 c -0.64056,-1.31608 -1.0621,-2.51321 -0.93677,-2.66029 0.12533,-0.14707 0.7068,0.68514 1.29216,1.84936 0.86405,1.71853 1.2754,2.04862 2.18647,1.75451 1.09091,-0.35216 1.09514,-0.33688 0.15186,0.54803 -1.32741,1.24526 -1.37427,1.21932 -2.69372,-1.49161 z m 4.03769,-0.67781 c -0.27424,-0.4033 -0.84737,-1.53999 -1.27362,-2.52598 -0.72366,-1.67394 -0.71168,-1.83912 0.18068,-2.4931 1.35846,-0.99556 1.84586,-0.86872 0.68989,0.17953 -0.91513,0.82985 -0.92101,0.92494 -0.10332,1.67119 0.47687,0.43519 0.726,0.95676 0.55362,1.15904 -0.48035,0.56369 0.87082,2.19476 1.46259,1.76557 0.30226,-0.21922 0.37094,-0.0935 0.1638,0.29976 -0.46281,0.87878 -1.05138,0.85908 -1.67364,-0.056 z m 58.36275,-0.1393 c 0,-0.15727 0.91184,-0.96143 2.0263,-1.78702 l 2.02631,-1.50108 -1.15151,-1.21224 -1.15151,-1.21224 1.22232,0.84968 c 1.86204,1.29437 1.77709,2.01584 -0.42987,3.65075 -2.02512,1.5002 -2.54204,1.74669 -2.54204,1.21215 z m -3.65606,-4.35295 c 0.19937,-0.89468 0.04,-1.22722 -0.58814,-1.22722 -0.5935,0 -0.76363,0.29963 -0.54674,0.96289 0.26237,0.80234 0.18885,0.84016 -0.4409,0.22684 -1.10058,-1.07187 -0.37281,-1.94785 1.29339,-1.5568 1.03397,0.24267 1.43903,0.10795 1.43903,-0.47863 0,-0.449 -0.23057,-0.95055 -0.51238,-1.11456 -0.28181,-0.164 -0.22557,-0.23132 0.12497,-0.14959 1.04086,0.24269 1.00688,2.38763 -0.0557,3.51609 -0.95446,1.01363 -0.97799,1.00772 -0.71353,-0.17902 z m -49.76346,-1.08051 c 0.0605,-1.43344 0.0926,-1.4623 0.28853,-0.25907 0.17405,1.06906 0.36429,1.21405 0.90368,0.68872 0.92265,-0.89858 -0.0968,-3.70862 -1.17009,-3.2253 -0.61219,0.27568 -0.62492,0.17872 -0.0781,-0.59453 0.5791,-0.81884 0.76332,-0.72028 1.61945,0.86649 0.53131,0.98473 1.13138,1.79042 1.3335,1.79042 0.20211,0 0.36748,0.39979 0.36748,0.88842 0,0.579 -0.30453,0.77499 -0.87439,0.56275 -0.48091,-0.17912 -1.01907,-0.051 -1.1959,0.2848 -0.60877,1.15591 -1.26214,0.60731 -1.1942,-1.0027 z m 4.41214,-1.05308 c -0.34299,-0.48497 -0.47908,-1.05137 -0.30243,-1.25866 0.17664,-0.2073 0.32117,-0.0689 0.32117,0.30748 0,0.37641 0.46639,0.68438 1.03642,0.68438 0.71797,0 0.98468,-0.31543 0.86801,-1.02657 -0.10993,-0.67012 -0.64275,-1.03603 -1.53451,-1.0538 -1.85953,-0.0371 -2.73275,-1.0987 -1.88715,-2.29436 0.83881,-1.18606 2.517,-1.16755 2.517,0.0278 0,0.51289 0.48569,1.39406 1.0793,1.95813 1.14213,1.08529 0.97028,2.00218 -0.55477,2.95996 -0.67239,0.42229 -1.08699,0.34052 -1.54304,-0.30433 z m 0.51863,-4.07978 c 0,-0.48395 -0.33743,-0.87991 -0.74983,-0.87991 -0.4124,0 -0.74983,0.39596 -0.74983,0.87991 0,0.48396 0.33743,0.87992 0.74983,0.87992 0.4124,0 0.74983,-0.39596 0.74983,-0.87992 z m 40.4906,3.55646 c 0,-0.24109 0.4499,-1.10953 0.99977,-1.92986 0.64333,-0.95974 0.99977,-1.182 0.99977,-0.6234 0,0.47746 -0.4499,1.3459 -0.99977,1.92986 -0.54987,0.58397 -0.99977,0.8645 -0.99977,0.6234 z m -2.62439,-1.5503 c -1.29334,-0.884 -1.07716,-3.20073 0.42834,-4.59042 1.34287,-1.23956 2.69445,-0.97595 3.49126,0.68093 0.27762,0.57728 0.2102,0.57662 -0.32208,-0.003 -1.07685,-1.17294 -2.38235,-0.85394 -3.31087,0.80902 -0.83403,1.49372 -0.82478,1.57684 0.2938,2.63975 1.23156,1.17028 0.87268,1.45708 -0.58045,0.46387 z m 25.61906,-8.16558 c -0.54987,-0.64527 -0.99977,-1.41561 -0.99977,-1.71186 0,-2.12304 1.82602,-3.84166 3.33801,-3.14168 0.74334,0.34413 0.635,0.47976 -0.58865,0.73692 -1.27075,0.26706 -1.49965,0.58202 -1.49965,2.06348 0,1.48146 0.2289,1.79642 1.49965,2.06348 1.22936,0.25836 1.33462,0.39156 0.58398,0.73903 -1.23438,0.57137 -1.19819,0.583 -2.33357,-0.74937 z m 3.99907,-1.07519 c 0,-1.87844 0.16284,-2.23433 0.98959,-2.16286 1.23604,0.10686 1.97829,0.8916 0.84332,0.8916 -0.59245,0 -0.83314,0.5084 -0.83314,1.75984 0,0.96791 -0.22495,1.75983 -0.49988,1.75983 -0.27494,0 -0.49989,-1.01178 -0.49989,-2.24841 z m 3.2779,1.79319 c -0.59999,-0.70409 -0.22619,-1.7416 0.84615,-2.34849 l 1.12474,-0.63655 -1.24971,-0.0575 c -1.0537,-0.0485 -1.11925,-0.1469 -0.41788,-0.62725 1.35324,-0.92681 2.41745,-0.0515 2.41706,1.98802 -3e-4,1.54124 -0.20063,1.85726 -1.22106,1.92623 -0.67139,0.0454 -1.34608,-0.0646 -1.4993,-0.24442 z m 1.58556,-1.07241 c -0.16611,-0.19493 -0.59726,-0.21577 -0.95811,-0.0463 -0.39878,0.18726 -0.28033,0.32626 0.30201,0.35441 0.52696,0.0255 0.82221,-0.11317 0.6561,-0.3081 z m 5.13422,1.21096 c 0,-0.17417 0.45447,-1.36206 1.00993,-2.63975 l 1.00993,-2.32308 h -1.25987 c -0.69293,0 -1.25987,-0.26398 -1.25987,-0.58661 0,-0.32264 0.67484,-0.58661 1.49965,-0.58661 1.80736,0 1.90974,0.86328 0.48973,4.12965 -0.90958,2.09224 -1.4895,2.87341 -1.4895,2.0064 z m 4.30366,-0.3549 c -0.20416,-0.53069 -0.29998,-1.98255 -0.21292,-3.22637 0.13831,-1.97615 0.33172,-2.2849 1.53296,-2.4471 0.75607,-0.10208 1.37468,0.0959 1.37468,0.43996 0,0.34407 -0.4499,0.62558 -0.99977,0.62558 -0.55542,0 -0.99977,0.39107 -0.99977,0.87992 0,0.48884 0.44435,0.87991 0.99977,0.87991 0.54987,0 0.99977,0.26398 0.99977,0.58662 0,0.32263 -0.43425,0.58661 -0.965,0.58661 -0.60919,0 -1.03755,0.48666 -1.16176,1.31987 -0.16381,1.09888 -0.25891,1.15832 -0.56796,0.355 z m -39.18431,-35.43831 c -0.62769,-0.51593 -1.111,-1.53079 -1.111,-2.33292 0,-1.75835 1.96032,-3.41742 3.30378,-2.79607 0.79683,0.36853 0.70979,0.48665 -0.55442,0.75233 -1.27075,0.26706 -1.49965,0.58202 -1.49965,2.06348 0,1.48146 0.2289,1.79642 1.49965,2.06348 1.22936,0.25836 1.33462,0.39156 0.58398,0.73902 -1.14526,0.53013 -0.92235,0.57921 -2.22234,-0.48932 z m 3.96274,-1.16091 c -0.0634,-2.00562 0.0779,-2.3674 0.92487,-2.3674 1.15915,0 1.32538,0.64967 0.286,1.11772 -0.39258,0.17678 -0.80877,1.06295 -0.92487,1.96925 -0.16235,1.26726 -0.2284,1.10107 -0.286,-0.71957 z m 3.203,1.61887 c -0.59999,-0.70409 -0.22619,-1.7416 0.84615,-2.34849 l 1.12474,-0.63655 -1.24971,-0.0575 c -1.0537,-0.0485 -1.11925,-0.1469 -0.41788,-0.62725 1.35324,-0.92681 2.41745,-0.0515 2.41706,1.98802 -3e-4,1.54124 -0.20063,1.85726 -1.22106,1.92623 -0.67139,0.0454 -1.34608,-0.0646 -1.4993,-0.24442 z m 1.58556,-1.07241 c -0.16611,-0.19493 -0.59726,-0.21577 -0.95811,-0.0463 -0.39878,0.18726 -0.28033,0.32626 0.30201,0.35441 0.52696,0.0255 0.82221,-0.11317 0.6561,-0.3081 z m 5.13422,1.21096 c 0,-0.17417 0.45447,-1.36206 1.00993,-2.63975 l 1.00993,-2.32308 h -1.25987 c -0.69293,0 -1.25987,-0.26398 -1.25987,-0.58661 0,-0.32264 0.67484,-0.58662 1.49965,-0.58662 1.74444,0 1.82675,0.52052 0.62486,3.95127 -0.73978,2.11167 -1.62463,3.3016 -1.62463,2.18479 z m 5.12382,-0.28822 c -0.81706,-0.38539 -1.12474,-1.01341 -1.12474,-2.29574 0,-2.10817 1.81854,-3.83302 3.30378,-3.13356 0.75971,0.35777 0.60183,0.5043 -0.80436,0.74657 -1.55366,0.26767 -1.7496,0.49851 -1.7496,2.06126 0,1.48375 0.21567,1.78895 1.37468,1.94545 0.75608,0.10209 1.37468,-0.0959 1.37468,-0.43996 0,-0.34406 -0.22494,-0.62557 -0.49988,-0.62557 -0.27494,0 -0.49988,-0.26398 -0.49988,-0.58661 0,-0.32264 0.33742,-0.58662 0.74982,-0.58662 1.01539,0 0.98045,2.70369 -0.0409,3.16361 -0.43489,0.19583 -0.82855,0.33933 -0.8748,0.31888 -0.0463,-0.0205 -0.59022,-0.27592 -1.20882,-0.56771 z M 63.882519,227.35185 c -0.952027,-1.23449 -1.077986,-2.78247 -0.273863,-3.36567 0.360707,-0.26161 0.451722,-0.0183 0.261353,0.69865 -0.442722,1.66735 0.368921,2.6842 1.969043,2.46688 1.023447,-0.139 1.522931,-0.60736 1.770496,-1.66016 l 0.344853,-1.46653 0.04983,1.49586 c 0.09379,2.81566 -2.480439,3.9592 -4.12171,1.83097 z m 1.202412,-5.61166 c -2.178612,-0.92376 -2.480725,-1.94257 -0.798589,-2.69307 1.482744,-0.66155 4.354666,-1.37499 3.392803,-0.84284 -0.343671,0.19014 -0.624855,1.09363 -0.624855,2.00777 0,0.91413 0.281184,1.79521 0.624855,1.95794 1.378654,0.65282 -0.951361,0.26678 -2.594214,-0.4298 z m 1.469474,-1.52814 c 0,-1.36978 -0.0062,-1.37155 -1.842022,-0.52201 -1.307538,0.60509 -1.336402,0.68527 -0.407456,1.13199 1.645889,0.79149 2.249478,0.62782 2.249478,-0.60998 z m 76.357285,-0.047 c -0.87925,-0.60097 -1.21414,-3.15733 -0.48308,-3.68754 0.21545,-0.15626 0.38416,0.42211 0.37492,1.28525 -0.0139,1.30061 0.23071,1.60252 1.4286,1.76299 1.61997,0.217 2.43351,-0.7921 1.98881,-2.46689 -0.19037,-0.71695 -0.0994,-0.96025 0.26136,-0.69864 0.80188,0.58157 0.67871,2.44778 -0.2321,3.51661 -0.89731,1.05299 -2.07131,1.15435 -3.33851,0.28822 z m -77.763312,-4.48898 c 1.940825,-0.18074 2.379709,-0.43955 2.556316,-1.50744 0.176639,-1.06809 0.224891,-1.01252 0.281288,0.32394 0.06657,1.57759 0.01016,1.61085 -2.556316,1.50745 l -2.624391,-0.10574 z m 79.387932,-1.32222 c -1.23721,-0.57202 -2.24947,-1.36677 -2.24947,-1.76612 0,-0.39934 1.0685,-1.21861 2.37445,-1.82059 1.30594,-0.60198 2.37445,-0.83495 2.37445,-0.5177 0,0.31724 -0.22495,0.57681 -0.49989,0.57681 -0.72804,0 -0.61357,3.37425 0.12497,3.68378 0.34367,0.14404 0.51238,0.40182 0.37492,0.57286 -0.13747,0.17104 -1.26221,-0.15703 -2.49943,-0.72904 z m 0.99977,-1.76777 c 0,-1.26843 -0.16764,-1.34029 -1.87456,-0.80349 -1.34249,0.4222 -1.46604,1.19942 -0.24994,1.57235 1.72799,0.52992 2.1245,0.38642 2.1245,-0.76886 z m -80.387702,-1.6029 c 1.940825,-0.18074 2.379709,-0.43955 2.556316,-1.50745 0.176639,-1.06808 0.224891,-1.01251 0.281288,0.32395 0.06657,1.57758 0.01016,1.61085 -2.556316,1.50745 l -2.624391,-0.10574 z m 78.981682,-2.93306 c 1.94082,-0.18074 2.3797,-0.43955 2.55631,-1.50744 0.17664,-1.06809 0.22489,-1.01252 0.28129,0.32394 0.0666,1.57758 0.0102,1.61085 -2.55632,1.50745 l -2.62439,-0.10574 z m -81.006768,-2.65003 c 0.04923,-1.37869 0.128049,-1.54109 0.28471,-0.58661 0.256423,1.5623 1.475281,1.76068 1.802053,0.29331 0.217722,-0.97769 0.231369,-0.97769 0.286595,0 0.08743,1.54788 1.942942,1.30102 2.204623,-0.29331 0.15666,-0.95448 0.23548,-0.79208 0.284709,0.58661 l 0.06808,1.90649 h -2.499421 -2.49942 z m 81.006768,-2.04286 c 1.94082,-0.18075 2.3797,-0.43955 2.55631,-1.50745 0.17664,-1.06808 0.22489,-1.01251 0.28129,0.32395 0.0666,1.57758 0.0102,1.61085 -2.55632,1.50744 l -2.62439,-0.10573 z m -79.45022,-4.36581 c -2.219661,-1.61031 -2.07781,-2.65652 0.39775,-2.93356 2.078381,-0.23259 3.829294,0.49196 2.601555,1.07656 -0.343671,0.16364 -0.624855,0.93547 -0.624855,1.71517 0,1.67883 -0.236374,1.69295 -2.37445,0.14183 z m 1.874565,-0.77732 c 0,-0.60592 -0.505897,-0.87345 -1.624623,-0.85913 l -1.624623,0.0208 1.24971,0.83835 c 1.609953,1.08 1.999536,1.08 1.999536,0 z m 75.550565,-0.43996 c 0.0492,-1.37869 0.12805,-1.54109 0.28471,-0.58661 0.25642,1.56229 1.47528,1.76068 1.80205,0.2933 0.21772,-0.97768 0.23137,-0.97768 0.2866,0 0.0874,1.54789 1.94294,1.30103 2.20462,-0.2933 0.15666,-0.95448 0.23548,-0.79208 0.28471,0.58661 l 0.0681,1.90649 h -2.49943 -2.49942 z m 17.03921,-3.11297 c -0.62769,-0.51594 -1.111,-1.5308 -1.111,-2.33293 0,-1.75835 1.96033,-3.41742 3.30379,-2.79607 0.79682,0.36853 0.70978,0.48665 -0.55442,0.75233 -1.27076,0.26706 -1.49966,0.58202 -1.49966,2.06348 0,1.48146 0.2289,1.79642 1.49966,2.06348 1.22935,0.25836 1.33461,0.39156 0.58397,0.73903 -1.14526,0.53012 -0.92234,0.57921 -2.22234,-0.48932 z m 3.96274,-1.16092 c -0.0634,-2.00562 0.0779,-2.36739 0.92487,-2.36739 1.15915,0 1.32538,0.64967 0.286,1.11772 -0.39258,0.17678 -0.80877,1.06294 -0.92487,1.96924 -0.16234,1.26726 -0.2284,1.10107 -0.286,-0.71957 z m 3.203,1.61887 c -0.59999,-0.70409 -0.22618,-1.7416 0.84615,-2.34849 l 1.12474,-0.63655 -1.24971,-0.0575 c -1.0537,-0.0485 -1.11924,-0.1469 -0.41788,-0.62725 1.35324,-0.92681 2.41745,-0.0515 2.41706,1.98802 -2.9e-4,1.54124 -0.20063,1.85727 -1.22106,1.92623 -0.67139,0.0454 -1.34607,-0.0646 -1.4993,-0.24442 z m 1.58556,-1.07241 c -0.16611,-0.19492 -0.59726,-0.21577 -0.95811,-0.0463 -0.39877,0.18726 -0.28032,0.32626 0.30201,0.35441 0.52696,0.0255 0.82221,-0.11317 0.6561,-0.3081 z m 5.13423,1.21096 c 0,-0.17417 0.45446,-1.36206 1.00992,-2.63975 l 1.00993,-2.32308 h -1.25987 c -0.69293,0 -1.25987,-0.26397 -1.25987,-0.58661 0,-0.32264 0.67485,-0.58661 1.49965,-0.58661 1.80736,0 1.90974,0.86329 0.48973,4.12965 -0.90958,2.09224 -1.48949,2.87341 -1.48949,2.0064 z m 3.99907,-2.90969 c 0,-1.7745 0.22495,-3.22636 0.49988,-3.22636 0.27494,0 0.49989,0.52795 0.49989,1.17322 0,1.75578 2.35569,1.62524 2.64652,-0.14665 0.11914,-0.72593 0.21356,0.26397 0.20981,2.19979 -0.004,1.93582 -0.10054,2.79374 -0.21507,1.90649 -0.16149,-1.25097 -0.4814,-1.61318 -1.42476,-1.61318 -0.96435,0 -1.2165,0.30398 -1.2165,1.46653 0,0.80659 -0.22495,1.46653 -0.49989,1.46653 -0.27493,0 -0.49988,-1.45187 -0.49988,-3.22637 z m -113.128958,1.9629 c -1.272828,-0.83589 -1.042771,-2.78344 0.405105,-3.42943 1.959872,-0.87442 3.760407,0.1892 3.699302,2.18528 -0.04881,1.59444 -0.05675,1.59862 -0.388701,0.20466 -0.467113,-1.96156 -1.561007,-2.27581 -1.561007,-0.44844 0,1.66146 -0.921495,2.2978 -2.154699,1.48793 z m 1.654815,-1.66959 c 0,-1.21447 -1.205975,-1.61881 -1.749594,-0.58661 -0.418423,0.79448 0.14618,1.75983 1.02927,1.75983 0.396178,0 0.720324,-0.52795 0.720324,-1.17322 z m 78.702303,-0.85074 c -0.93716,-0.82166 -0.93188,-0.83938 0.1544,-0.5182 0.81944,0.24228 1.12474,0.0751 1.12474,-0.61579 0,-0.66669 -0.45413,-0.94833 -1.52915,-0.94833 -1.02858,0 -1.41239,0.2217 -1.17247,0.67725 0.22098,0.4196 0.13712,0.51801 -0.22044,0.25868 -1.25138,-0.90757 -0.54451,-1.98957 1.44525,-2.21225 2.07838,-0.23259 3.82929,0.49196 2.60155,1.07656 -0.34367,0.16364 -0.62485,0.93547 -0.62485,1.71517 0,1.63147 -0.41425,1.76347 -1.77903,0.56691 z m 0.77926,-5.30869 c -0.47028,-0.66496 -0.80224,-0.7291 -1.29414,-0.25003 -0.91258,0.88878 -1.70517,0.17091 -1.70517,-1.54442 0,-0.99029 0.2698,-1.41763 0.8748,-1.3856 0.5226,0.0277 0.62323,0.16544 0.24994,0.34219 -0.74783,0.35411 -0.84476,2.54456 -0.11259,2.54456 0.28174,0 0.7144,-0.62394 0.96147,-1.38653 0.79974,-2.46841 3.02523,-2.27802 3.02523,0.2588 0,1.59799 -1.24743,2.48451 -1.99954,1.42103 z m 1.27663,-0.93103 c 0.51514,-0.97812 -0.64346,-2.09978 -1.33305,-1.29054 -0.57683,0.6769 -0.21581,1.92827 0.5563,1.92827 0.24249,0 0.59202,-0.28698 0.77675,-0.63773 z M 30.673981,155.35819 c -0.627692,-0.51593 -1.110995,-1.53079 -1.110995,-2.33292 0,-1.75835 1.960322,-3.41742 3.303781,-2.79607 0.796828,0.36853 0.709782,0.48664 -0.554419,0.75233 -1.270752,0.26706 -1.499652,0.58202 -1.499652,2.06348 0,1.48146 0.2289,1.79642 1.499652,2.06348 1.229356,0.25836 1.334611,0.39156 0.583971,0.73902 -1.145255,0.53013 -0.922341,0.57921 -2.222338,-0.48932 z m 4.179129,-1.60262 c 0.849784,-2.92667 1.442115,-3.76755 0.913759,-1.29717 -0.262584,1.22773 -0.136553,1.46653 0.773988,1.46653 0.896838,0 1.027155,-0.23155 0.742837,-1.31988 -0.189644,-0.72593 -0.569768,-1.64985 -0.84472,-2.05314 -0.336617,-0.49375 -0.328044,-0.73327 0.02625,-0.73327 0.584458,0 2.650713,5.98813 2.22657,6.45273 -0.14727,0.16132 -0.368186,-0.0367 -0.490926,-0.43996 -0.2855,-0.93809 -2.751197,-0.95388 -3.544708,-0.0227 -0.389541,0.45713 -0.319292,-0.27517 0.196955,-2.05314 z m 5.207441,-0.71056 c 0,-3.36985 0.476874,-3.87522 2.708478,-2.8703 0.874641,0.39386 1.072121,2.30366 0.296383,2.86627 -0.303085,0.21981 -0.184146,0.91405 0.307433,1.79445 0.44286,0.79316 0.567337,1.43594 0.278072,1.43594 -0.288029,0 -0.666481,-0.52795 -0.841004,-1.17322 -0.174523,-0.64527 -0.639577,-1.17322 -1.033454,-1.17322 -0.393877,0 -0.71614,0.52795 -0.71614,1.17322 0,0.64527 -0.224948,1.17322 -0.499884,1.17322 -0.274936,0 -0.499884,-1.45186 -0.499884,-3.22636 z m 2.999304,-1.17322 c 0,-0.48885 -0.444341,-0.87992 -0.999768,-0.87992 -0.555427,0 -0.999768,0.39107 -0.999768,0.87992 0,0.48884 0.444341,0.87991 0.999768,0.87991 0.555427,0 0.999768,-0.39107 0.999768,-0.87991 z m 1.999536,1.17322 c 0,-3.36985 0.476875,-3.87522 2.708478,-2.8703 0.874642,0.39386 1.072121,2.30366 0.296383,2.86627 -0.303084,0.21981 -0.184145,0.91405 0.307434,1.79445 0.44286,0.79316 0.567336,1.43594 0.278071,1.43594 -0.288029,0 -0.666481,-0.52795 -0.841003,-1.17322 -0.174523,-0.64527 -0.639577,-1.17322 -1.033454,-1.17322 -0.393878,0 -0.716141,0.52795 -0.716141,1.17322 0,0.64527 -0.224947,1.17322 -0.499884,1.17322 -0.274936,0 -0.499884,-1.45186 -0.499884,-3.22636 z m 2.999305,-1.17322 c 0,-0.48885 -0.444342,-0.87992 -0.999768,-0.87992 -0.555427,0 -0.999769,0.39107 -0.999769,0.87992 0,0.48884 0.444342,0.87991 0.999769,0.87991 0.555426,0 0.999768,-0.39107 0.999768,-0.87991 z m 2.20048,3.58135 c -0.14716,-0.45002 -0.196337,-1.83589 -0.109283,-3.07971 0.138311,-1.97615 0.331725,-2.2849 1.532962,-2.4471 0.756075,-0.10209 1.374681,0.0959 1.374681,0.43996 0,0.34407 -0.449895,0.62558 -0.999768,0.62558 -0.549872,0 -0.999768,0.26397 -0.999768,0.58661 0,0.32264 0.449896,0.58661 0.999768,0.58661 0.549873,0 0.999768,0.26398 0.999768,0.58661 0,0.32264 -0.449895,0.58661 -0.999768,0.58661 -0.555427,0 -0.999768,0.39108 -0.999768,0.87992 0,0.48885 0.444341,0.87992 0.999768,0.87992 0.549873,0 0.999768,0.26397 0.999768,0.58661 0,0.9019 -2.495233,0.69537 -2.79836,-0.23162 z m 4.298012,-2.40813 c 0,-3.36985 0.476875,-3.87522 2.708478,-2.8703 0.874642,0.39386 1.072121,2.30366 0.296383,2.86627 -0.303084,0.21981 -0.184145,0.91405 0.307434,1.79445 0.44286,0.79316 0.567336,1.43594 0.278071,1.43594 -0.288029,0 -0.666481,-0.52795 -0.841003,-1.17322 -0.174523,-0.64527 -0.639578,-1.17322 -1.033455,-1.17322 -0.393877,0 -0.71614,0.52795 -0.71614,1.17322 0,0.64527 -0.224947,1.17322 -0.499884,1.17322 -0.274936,0 -0.499884,-1.45186 -0.499884,-3.22636 z m 2.999305,-1.17322 c 0,-0.48885 -0.444342,-0.87992 -0.999769,-0.87992 -0.555426,0 -0.999768,0.39107 -0.999768,0.87992 0,0.48884 0.444342,0.87991 0.999768,0.87991 0.555427,0 0.999769,-0.39107 0.999769,-0.87991 z m 2.29082,1.88378 c 0.849783,-2.92667 1.442115,-3.76755 0.913758,-1.29717 -0.262583,1.22773 -0.136553,1.46653 0.773989,1.46653 0.896838,0 1.027155,-0.23155 0.742837,-1.31988 -0.189645,-0.72593 -0.569769,-1.64985 -0.84472,-2.05314 -0.336618,-0.49375 -0.328045,-0.73327 0.02625,-0.73327 0.584458,0 2.650712,5.98813 2.226569,6.45273 -0.147269,0.16132 -0.368186,-0.0367 -0.490925,-0.43996 -0.2855,-0.93809 -2.751198,-0.95388 -3.544708,-0.0227 -0.389541,0.45713 -0.319293,-0.27517 0.196955,-2.05314 z m 7.476734,1.72543 c -0.638226,-0.54765 -0.744325,-0.91858 -0.345485,-1.20785 0.316586,-0.2296 0.575612,-0.13791 0.575612,0.20377 0,0.34168 0.449895,0.62123 0.999768,0.62123 1.349081,0 1.269576,-1.34236 -0.122051,-2.06069 -1.348714,-0.69618 -1.729108,-2.34839 -0.652316,-2.83329 1.296413,-0.58379 2.383057,0.23504 2.085272,1.57133 -0.148113,0.66465 -0.006,1.58073 0.315769,2.03573 0.460415,0.65101 0.38235,1.00121 -0.366405,1.6437 -1.175197,1.00842 -1.343291,1.01018 -2.490164,0.0261 z m 2.115106,-3.79253 c 0.11053,-0.38912 -0.261818,-0.6966 -0.843554,-0.6966 -1.038422,0 -1.349653,0.61598 -0.697755,1.38098 0.463129,0.54348 1.297808,0.17286 1.541309,-0.68438 z m 52.213727,3.66972 c -0.6277,-0.51593 -1.111,-1.53079 -1.111,-2.33292 0,-1.75835 1.96032,-3.41742 3.30378,-2.79607 0.79683,0.36853 0.70978,0.48664 -0.55442,0.75233 -1.27075,0.26706 -1.49965,0.58202 -1.49965,2.06348 0,1.48146 0.2289,1.79642 1.49965,2.06348 1.22936,0.25836 1.33461,0.39156 0.58397,0.73902 -1.14525,0.53013 -0.92234,0.57921 -2.22233,-0.48932 z m 4.17913,-1.60262 c 0.84978,-2.92667 1.44211,-3.76755 0.91375,-1.29717 -0.26258,1.22773 -0.13655,1.46653 0.77399,1.46653 0.89684,0 1.02716,-0.23155 0.74284,-1.31988 -0.18965,-0.72593 -0.56977,-1.64985 -0.84472,-2.05314 -0.33662,-0.49375 -0.32805,-0.73327 0.0262,-0.73327 0.58446,0 2.65072,5.98813 2.22657,6.45273 -0.14727,0.16132 -0.36818,-0.0367 -0.49092,-0.43996 -0.2855,-0.93809 -2.7512,-0.95388 -3.54471,-0.0227 -0.38954,0.45713 -0.31929,-0.27517 0.19696,-2.05314 z m 5.20744,-0.71056 c 0,-3.36985 0.47687,-3.87522 2.70847,-2.8703 0.87465,0.39386 1.07212,2.30366 0.29639,2.86627 -0.30309,0.21981 -0.18415,0.91405 0.30743,1.79445 0.44286,0.79316 0.56734,1.43594 0.27807,1.43594 -0.28803,0 -0.66648,-0.52795 -0.841,-1.17322 -0.17452,-0.64527 -0.63958,-1.17322 -1.03346,-1.17322 -0.39387,0 -0.71614,0.52795 -0.71614,1.17322 0,0.64527 -0.22494,1.17322 -0.49988,1.17322 -0.27494,0 -0.49988,-1.45186 -0.49988,-3.22636 z m 2.9993,-1.17322 c 0,-0.48885 -0.44434,-0.87992 -0.99977,-0.87992 -0.55542,0 -0.99977,0.39107 -0.99977,0.87992 0,0.48884 0.44435,0.87991 0.99977,0.87991 0.55543,0 0.99977,-0.39107 0.99977,-0.87991 z m 1.99954,1.17322 c 0,-3.36985 0.47687,-3.87522 2.70847,-2.8703 0.87465,0.39386 1.07213,2.30366 0.29639,2.86627 -0.30309,0.21981 -0.18415,0.91405 0.30743,1.79445 0.44286,0.79316 0.56734,1.43594 0.27807,1.43594 -0.28803,0 -0.66648,-0.52795 -0.841,-1.17322 -0.17452,-0.64527 -0.63958,-1.17322 -1.03346,-1.17322 -0.39387,0 -0.71614,0.52795 -0.71614,1.17322 0,0.64527 -0.22494,1.17322 -0.49988,1.17322 -0.27494,0 -0.49988,-1.45186 -0.49988,-3.22636 z m 2.9993,-1.17322 c 0,-0.48885 -0.44434,-0.87992 -0.99977,-0.87992 -0.55542,0 -0.99977,0.39107 -0.99977,0.87992 0,0.48884 0.44435,0.87991 0.99977,0.87991 0.55543,0 0.99977,-0.39107 0.99977,-0.87991 z m 2.20048,3.58135 c -0.14716,-0.45002 -0.19634,-1.83589 -0.10928,-3.07971 0.13831,-1.97615 0.33172,-2.2849 1.53296,-2.4471 0.75607,-0.10209 1.37468,0.0959 1.37468,0.43996 0,0.34407 -0.44989,0.62558 -0.99977,0.62558 -0.54987,0 -0.99977,0.26397 -0.99977,0.58661 0,0.32264 0.4499,0.58661 0.99977,0.58661 0.54988,0 0.99977,0.26398 0.99977,0.58661 0,0.32264 -0.44989,0.58661 -0.99977,0.58661 -0.55542,0 -0.99977,0.39108 -0.99977,0.87992 0,0.48885 0.44435,0.87992 0.99977,0.87992 0.54988,0 0.99977,0.26397 0.99977,0.58661 0,0.9019 -2.49523,0.69537 -2.79836,-0.23162 z m 4.29801,-2.40813 c 0,-3.36985 0.47688,-3.87522 2.70848,-2.8703 0.87464,0.39386 1.07212,2.30366 0.29638,2.86627 -0.30308,0.21981 -0.18414,0.91405 0.30744,1.79445 0.44286,0.79316 0.56733,1.43594 0.27807,1.43594 -0.28803,0 -0.66648,-0.52795 -0.841,-1.17322 -0.17453,-0.64527 -0.63958,-1.17322 -1.03346,-1.17322 -0.39388,0 -0.71614,0.52795 -0.71614,1.17322 0,0.64527 -0.22495,1.17322 -0.49988,1.17322 -0.27494,0 -0.49989,-1.45186 -0.49989,-3.22636 z m 2.99931,-1.17322 c 0,-0.48885 -0.44434,-0.87992 -0.99977,-0.87992 -0.55543,0 -0.99977,0.39107 -0.99977,0.87992 0,0.48884 0.44434,0.87991 0.99977,0.87991 0.55543,0 0.99977,-0.39107 0.99977,-0.87991 z m 2.29082,1.88378 c 0.84978,-2.92667 1.44211,-3.76755 0.91376,-1.29717 -0.26259,1.22773 -0.13656,1.46653 0.77398,1.46653 0.89684,0 1.02716,-0.23155 0.74284,-1.31988 -0.18964,-0.72593 -0.56977,-1.64985 -0.84472,-2.05314 -0.33662,-0.49375 -0.32804,-0.73327 0.0263,-0.73327 0.58445,0 2.65071,5.98813 2.22657,6.45273 -0.14727,0.16132 -0.36819,-0.0367 -0.49093,-0.43996 -0.2855,-0.93809 -2.7512,-0.95388 -3.54471,-0.0227 -0.38954,0.45713 -0.31929,-0.27517 0.19696,-2.05314 z m 7.47673,1.72543 c -0.63822,-0.54765 -0.74432,-0.91858 -0.34548,-1.20785 0.31658,-0.2296 0.57561,-0.13791 0.57561,0.20377 0,0.34168 0.44989,0.62123 0.99977,0.62123 1.34908,0 1.26957,-1.34236 -0.12205,-2.06069 -1.34872,-0.69618 -1.72911,-2.34839 -0.65232,-2.83329 1.29641,-0.58379 2.38306,0.23504 2.08527,1.57133 -0.14811,0.66465 -0.006,1.58073 0.31577,2.03573 0.46042,0.65101 0.38235,1.00121 -0.3664,1.6437 -1.1752,1.00842 -1.3433,1.01018 -2.49017,0.0261 z m 2.11511,-3.79253 c 0.11053,-0.38912 -0.26182,-0.6966 -0.84356,-0.6966 -1.03842,0 -1.34965,0.61598 -0.69775,1.38098 0.46313,0.54348 1.29781,0.17286 1.54131,-0.68438 z M 63.340865,133.05831 c -0.829156,-0.97301 -1.054716,-2.91999 -0.393813,-3.39932 0.215445,-0.15625 0.384156,0.42211 0.374913,1.28526 -0.01506,1.40623 0.165054,1.56935 1.732788,1.56935 1.567735,0 1.747848,-0.16312 1.732789,-1.56935 -0.0092,-0.86315 0.159468,-1.44151 0.374913,-1.28526 0.773967,0.56133 0.378475,3.11495 -0.575186,3.71389 -1.356201,0.85174 -2.3332,0.75707 -3.246404,-0.31457 z m 1.713888,-5.56333 c -1.237213,-0.55247 -2.249478,-1.32561 -2.249478,-1.71809 0,-0.39248 1.068502,-1.18956 2.374449,-1.7713 1.305947,-0.58173 2.37445,-0.81923 2.37445,-0.52778 0,0.29146 -0.224948,0.52992 -0.499884,0.52992 -0.728042,0 -0.613572,3.37425 0.124971,3.68378 0.34367,0.14404 0.512381,0.38475 0.374913,0.53492 -0.137469,0.15017 -1.262208,-0.17898 -2.499421,-0.73145 z m 0.999768,-1.72741 c 0,-1.36978 -0.0062,-1.37155 -1.842022,-0.52201 -1.307538,0.60509 -1.336402,0.68527 -0.407456,1.13199 1.645889,0.79149 2.249478,0.62782 2.249478,-0.60998 z m -1.406027,-4.53597 c 1.940825,-0.18074 2.379709,-0.43955 2.556316,-1.50744 0.176639,-1.06809 0.224891,-1.01252 0.281288,0.32394 0.06657,1.57758 0.01016,1.61085 -2.556316,1.50745 l -2.624391,-0.10574 z m 0,-4.69289 c 1.940825,-0.18075 2.379709,-0.43955 2.556316,-1.50745 0.176639,-1.06808 0.224891,-1.01251 0.281288,0.32395 0.06657,1.57758 0.01016,1.61085 -2.556316,1.50744 l -2.624391,-0.10573 z m 97.759016,-1.18805 c -0.9444,-0.24621 -1.65423,-2.54841 -1.20723,-3.9154 0.4163,-1.27306 2.01727,-2.09878 2.85845,-1.47426 0.53966,0.40066 0.37444,0.53897 -0.65179,0.54568 -1.23126,0.008 -1.37468,0.21913 -1.37468,2.02316 0,1.76121 0.17265,2.03749 1.37468,2.19979 0.87027,0.11751 1.09955,0.30733 0.62485,0.51731 -0.4124,0.18243 -1.14333,0.22911 -1.62428,0.10372 z m 3.70382,-1.62958 c -0.0678,-2.00762 0.0719,-2.3674 0.91977,-2.3674 0.54987,0 0.99977,0.20741 0.99977,0.46091 0,0.2535 -0.32317,0.46091 -0.71816,0.46091 -0.43561,0 -0.79747,0.75006 -0.91977,1.90648 -0.18439,1.74366 -0.20844,1.70429 -0.28161,-0.4609 z m 2.82593,1.06214 c -0.37033,-0.52364 -0.13505,-0.91819 0.86707,-1.454 l 1.37532,-0.73535 -1.19948,-0.37175 c -1.04527,-0.32395 -1.0862,-0.42827 -0.31832,-0.81142 1.20008,-0.59881 2.36809,0.65883 2.36809,2.54981 0,1.26655 -0.23038,1.54135 -1.29222,1.54135 -0.71072,0 -1.52093,-0.32339 -1.80046,-0.71864 z m 1.95752,-0.51569 c -0.1661,-0.19492 -0.59725,-0.21576 -0.95811,-0.0463 -0.39877,0.18726 -0.28032,0.32626 0.30202,0.35441 0.52696,0.0255 0.8222,-0.11317 0.65609,-0.3081 z m 4.87373,0.7112 c -0.74876,-0.64249 -0.82682,-0.99269 -0.36641,-1.64371 0.32179,-0.455 0.46389,-1.37107 0.31577,-2.03572 -0.29547,-1.3259 0.78606,-2.15638 2.06073,-1.58238 0.90335,0.40678 0.96927,1.47981 0.14997,2.44125 -0.46656,0.54751 -0.46656,0.70394 0,0.70394 0.88833,0 0.72813,2.16316 -0.19085,2.57699 -1.009,0.45437 -0.86355,0.48837 -1.96921,-0.46037 z m 2.1353,-1.09005 c -0.31494,-1.10998 -1.8748,-1.26779 -1.8748,-0.18967 0,0.54416 0.4274,0.92293 1.04143,0.92293 0.61084,0 0.9554,-0.30317 0.83337,-0.73326 z m 0.0102,-2.67642 c 0.11053,-0.38912 -0.26182,-0.6966 -0.84355,-0.6966 -1.03843,0 -1.34966,0.61598 -0.69776,1.38098 0.46313,0.54348 1.29781,0.17286 1.54131,-0.68438 z m 1.8675,3.46078 c 0.72992,-2.82547 1.76977,-5.3306 2.21266,-5.3306 0.55898,0 2.25056,5.80635 1.83399,6.29519 -0.16548,0.19419 -0.30087,0.0451 -0.30087,-0.33131 0,-0.91399 -2.62717,-0.87682 -3.4554,0.0489 -0.5361,0.59921 -0.58919,0.4745 -0.29038,-0.68217 z m 2.63645,-3.10082 c -0.49126,-1.65372 -0.60269,-1.74077 -0.93863,-0.73326 -0.63739,1.9116 -0.49767,2.60976 0.5223,2.60976 0.87834,0 0.91914,-0.1839 0.41633,-1.8765 z m -119.794532,-0.6166 c 0.04923,-1.37869 0.128049,-1.54109 0.28471,-0.58661 0.256423,1.5623 1.475281,1.76068 1.802052,0.2933 0.217723,-0.97768 0.23137,-0.97768 0.286596,0 0.08743,1.54789 1.942942,1.30103 2.204623,-0.2933 0.15666,-0.95448 0.23548,-0.79208 0.284709,0.58661 l 0.06808,1.90649 h -2.499421 -2.49942 z m 1.556548,-6.37356 c -2.21426,-1.66408 -2.076568,-2.69177 0.39775,-2.96867 2.078381,-0.23259 3.829294,0.49196 2.601555,1.07656 -0.343671,0.16364 -0.624856,0.93547 -0.624856,1.71517 0,1.72243 -0.289296,1.74398 -2.374449,0.17694 z m 1.874565,-0.81243 c 0,-0.59833 -0.510499,-0.87992 -1.595194,-0.87992 -1.509942,0 -1.543336,0.046 -0.624855,0.86126 1.260177,1.11852 2.220049,1.12659 2.220049,0.0187 z M 63.29941,99.730929 c -1.096717,-0.94107 -0.794894,-2.737952 0.558352,-3.324122 1.512088,-0.654973 3.425348,0.634813 3.547244,2.391302 l 0.100754,1.451851 -0.364484,-1.423041 c -0.50319,-1.964577 -1.586619,-2.270797 -1.586619,-0.448443 0,1.729564 -1.068805,2.370524 -2.255247,1.352453 z m 1.755363,-1.577126 c 0,-1.503277 -1.65453,-1.33274 -1.905478,0.196402 -0.115523,0.703934 0.153673,1.019834 0.869057,1.019834 0.715383,0 1.036421,-0.37674 1.036421,-1.216236 z m 75.768137,1.467636 c -0.82916,-0.97301 -1.05472,-2.91999 -0.39381,-3.399316 0.21544,-0.156254 0.38415,0.422111 0.37491,1.285256 -0.0151,1.40623 0.16505,1.56935 1.73279,1.56935 1.56773,0 1.74785,-0.16312 1.73279,-1.56935 -0.009,-0.863145 0.15947,-1.44151 0.37491,-1.285256 0.77397,0.561327 0.37848,3.114956 -0.57519,3.713886 -1.3562,0.851741 -2.3332,0.757081 -3.2464,-0.31457 z m 1.71389,-5.563325 c -1.23721,-0.552469 -2.24948,-1.325609 -2.24948,-1.718089 0,-0.392479 1.0685,-1.189564 2.37445,-1.771299 1.30595,-0.581735 2.37445,-0.819237 2.37445,-0.527781 0,0.291455 -0.22495,0.529919 -0.49989,0.529919 -0.72804,0 -0.61357,3.374254 0.12498,3.683781 0.34367,0.144034 0.51238,0.384748 0.37491,0.534919 -0.13747,0.150172 -1.26221,-0.178981 -2.49942,-0.73145 z m 0.99977,-1.727415 c 0,-1.369772 -0.006,-1.371543 -1.84203,-0.522007 -1.30753,0.605086 -1.3364,0.685275 -0.40745,1.131994 1.64589,0.791487 2.24948,0.627813 2.24948,-0.609987 z m -1.40603,-4.535963 c 1.94082,-0.180745 2.37971,-0.439553 2.55632,-1.507446 0.17663,-1.068084 0.22489,-1.012516 0.28128,0.323945 0.0666,1.577582 0.0102,1.610848 -2.55631,1.507446 l -2.62439,-0.105736 z m 0,-4.692893 c 1.94082,-0.180746 2.37971,-0.439553 2.55632,-1.507446 0.17663,-1.068085 0.22489,-1.012516 0.28128,0.323944 0.0666,1.577583 0.0102,1.610849 -2.55631,1.507447 l -2.62439,-0.105736 z m 17.77723,-3.723588 c -1.36136,-0.930489 -1.18664,-4.547684 0.24994,-5.17434 0.61861,-0.269845 1.46216,-0.327333 1.87457,-0.12775 0.49794,0.24098 0.28845,0.425183 -0.62364,0.548356 -0.95967,0.129598 -1.46331,0.605571 -1.67168,1.579842 -0.40092,1.874501 0.0866,2.632476 1.69996,2.64325 1.05214,0.007 1.18184,0.132859 0.59536,0.577629 -0.92292,0.699912 -1.03539,0.697424 -2.12451,-0.04699 z m 3.99907,0.298586 c -0.2062,-0.245925 -0.37491,-1.164293 -0.37491,-2.040818 0,-1.234093 0.28198,-1.656936 1.24971,-1.874025 0.68734,-0.15419 1.24971,-0.05298 1.24971,0.22492 0,0.277896 -0.32317,0.505265 -0.71816,0.505265 -0.43588,0 -0.77972,0.713735 -0.87479,1.815897 -0.0862,0.998743 -0.32536,1.614685 -0.53156,1.368761 z m 3.17784,-0.13288 c -1.01654,-0.397633 -0.5692,-1.64477 0.82123,-2.289522 l 1.37469,-0.637448 -1.49966,-0.08024 c -1.22169,-0.06537 -1.34547,-0.185837 -0.66781,-0.649951 1.35919,-0.930884 2.41741,-0.05146 2.41741,2.008973 0,1.834366 -0.72351,2.321915 -2.44586,1.64819 z m 1.57106,-1.093833 c -0.34367,-0.162733 -0.90604,-0.162733 -1.24971,0 -0.34367,0.162734 -0.0625,0.295879 0.62486,0.295879 0.68734,0 0.96852,-0.133145 0.62485,-0.295879 z m 4.87387,0.98403 c -0.6132,-0.457741 -0.63784,-0.771811 -0.13521,-1.723657 0.38662,-0.732161 0.43298,-1.295661 0.12497,-1.519048 -0.78667,-0.570545 -0.56898,-1.367998 0.56844,-2.082343 0.84234,-0.52902 1.2202,-0.474277 1.85314,0.268477 0.59328,0.696205 0.651,1.10204 0.22745,1.599074 -0.42355,0.497035 -0.41811,0.949276 0.0214,1.781925 0.47162,0.893432 0.43957,1.227407 -0.1608,1.675572 -0.4124,0.307851 -0.97477,0.55973 -1.24971,0.55973 -0.27494,0 -0.83731,-0.251879 -1.24971,-0.55973 z m 2.37445,-1.328793 c -0.11456,-0.403295 -0.62069,-0.733264 -1.12474,-0.733264 -0.50405,0 -1.01018,0.329969 -1.12474,0.733264 -0.13191,0.464401 0.28049,0.733265 1.12474,0.733265 0.84425,0 1.25665,-0.268864 1.12474,-0.733265 z m -0.37491,-2.493099 c 0,-0.483955 -0.33743,-0.879918 -0.74983,-0.879918 -0.78061,0 -0.99175,0.693786 -0.41657,1.368761 0.57518,0.674975 1.1664,0.427194 1.1664,-0.488843 z m 2.49942,1.173223 c 0,-2.685075 0.14676,-3.224857 0.87479,-3.217382 1.24795,0.01282 2.22087,0.859342 2.08406,1.813315 -0.0645,0.4496 0.0673,1.317585 0.29277,1.928854 0.46224,1.252986 -0.79644,2.701577 -2.3474,2.701577 -0.76277,0 -0.90422,-0.504709 -0.90422,-3.226364 z m 2.49942,1.173223 c 0,-0.488843 -0.44434,-0.879917 -0.99977,-0.879917 -0.55543,0 -0.99977,0.391074 -0.99977,0.879917 0,0.488843 0.44434,0.879918 0.99977,0.879918 0.55543,0 0.99977,-0.391075 0.99977,-0.879918 z m 0,-2.639752 c 0,-0.322637 -0.4499,-0.586612 -0.99977,-0.586612 -0.54987,0 -0.99977,0.263975 -0.99977,0.586612 0,0.322636 0.4499,0.586611 0.99977,0.586611 0.54987,0 0.99977,-0.263975 0.99977,-0.586611 z m -40.42254,2.199794 c 0.0492,-1.378689 0.12805,-1.541089 0.28471,-0.586612 0.25643,1.562297 1.47528,1.760681 1.80206,0.293306 0.21772,-0.977686 0.23137,-0.977686 0.28659,0 0.0874,1.547885 1.94294,1.301026 2.20462,-0.293306 0.15666,-0.954477 0.23548,-0.792077 0.28471,0.586612 l 0.0681,1.906488 h -2.49942 -2.49942 z m 1.55655,-6.373565 c -2.21426,-1.664075 -2.07657,-2.691762 0.39775,-2.968665 2.07838,-0.232593 3.8293,0.491957 2.60156,1.076557 -0.34367,0.163642 -0.62486,0.935471 -0.62486,1.715175 0,1.722423 -0.2893,1.743981 -2.37445,0.176933 z m 1.87457,-0.812429 c 0,-0.598323 -0.5105,-0.879917 -1.5952,-0.879917 -1.50994,0 -1.54333,0.04603 -0.62485,0.861261 1.26017,1.118518 2.22005,1.126584 2.22005,0.01866 z m -3.31842,-4.692893 c -0.50547,-1.545778 0.22957,-2.804067 1.42391,-2.43755 0.60096,0.18442 1.3557,0.07913 1.6772,-0.233986 0.75879,-0.738996 1.86365,0.757822 1.62642,2.203397 -0.2459,1.498392 -2.06091,1.316969 -2.65239,-0.265126 -0.2714,-0.725932 -0.77753,-1.319876 -1.12474,-1.319876 -0.9652,0 -0.75106,2.22369 0.24351,2.528692 0.81985,0.251422 0.81887,0.272545 -0.0157,0.336319 -0.48977,0.03743 -1.01997,-0.327915 -1.17822,-0.81187 z m 4.31818,-0.879918 c 0,-1.214465 -1.20597,-1.61881 -1.74959,-0.586611 -0.41842,0.794483 0.14618,1.759835 1.02927,1.759835 0.39618,0 0.72032,-0.527951 0.72032,-1.173224 z m 17.37098,-20.578395 c -1.36137,-0.930489 -1.18664,-4.547684 0.24994,-5.17434 0.6186,-0.269845 1.46216,-0.327332 1.87456,-0.12775 0.49795,0.24098 0.28846,0.425183 -0.62363,0.548356 -0.95967,0.129598 -1.46331,0.605571 -1.67169,1.579842 -0.40091,1.874501 0.0866,2.632476 1.69997,2.64325 1.05214,0.007 1.18183,0.132859 0.59535,0.577629 -0.92291,0.699912 -1.03538,0.697424 -2.1245,-0.04699 z m 3.99907,0.298586 c -0.2062,-0.245925 -0.37491,-1.164293 -0.37491,-2.040818 0,-1.234093 0.28197,-1.656936 1.24971,-1.874025 0.68734,-0.15419 1.24971,-0.05298 1.24971,0.22492 0,0.277896 -0.32317,0.505265 -0.71816,0.505265 -0.43588,0 -0.77972,0.713735 -0.8748,1.815897 -0.0861,0.998743 -0.32535,1.614685 -0.53155,1.368761 z m 3.17783,-0.13288 c -1.01653,-0.397633 -0.56919,-1.64477 0.82124,-2.289521 l 1.37468,-0.637449 -1.49965,-0.08024 c -1.22169,-0.06537 -1.34547,-0.185837 -0.66782,-0.649951 1.35919,-0.930884 2.41741,-0.05146 2.41741,2.008973 0,1.834366 -0.7235,2.321915 -2.44586,1.64819 z m 1.57107,-1.093833 c -0.34367,-0.162733 -0.90604,-0.162733 -1.24971,0 -0.34367,0.162734 -0.0625,0.295879 0.62485,0.295879 0.68734,0 0.96853,-0.133145 0.62486,-0.295879 z m 4.87387,0.98403 c -0.6132,-0.457741 -0.63784,-0.771811 -0.13521,-1.723657 0.38662,-0.732161 0.43298,-1.295661 0.12497,-1.519048 -0.78668,-0.570545 -0.56899,-1.367998 0.56844,-2.082343 0.84234,-0.52902 1.2202,-0.474277 1.85314,0.268477 0.59328,0.696205 0.651,1.10204 0.22745,1.599074 -0.42355,0.497035 -0.41811,0.949276 0.0214,1.781925 0.47163,0.893432 0.43958,1.227407 -0.16079,1.675572 -0.41241,0.307851 -0.97478,0.55973 -1.24971,0.55973 -0.27494,0 -0.83731,-0.251879 -1.24971,-0.55973 z m 2.37445,-1.328793 c -0.11456,-0.403295 -0.62069,-0.733264 -1.12474,-0.733264 -0.50405,0 -1.01019,0.329969 -1.12474,0.733264 -0.13192,0.464401 0.28049,0.733265 1.12474,0.733265 0.84424,0 1.25665,-0.268864 1.12474,-0.733265 z m -0.37492,-2.493099 c 0,-0.483955 -0.33742,-0.879918 -0.74982,-0.879918 -0.78061,0 -0.99176,0.693786 -0.41657,1.368761 0.57518,0.674975 1.16639,0.427194 1.16639,-0.488843 z m 2.99931,3.226364 c -0.54988,-0.645273 -0.99977,-1.415609 -0.99977,-1.711858 0,-2.123043 1.82601,-3.841665 3.338,-3.141685 0.74334,0.344132 0.63501,0.479761 -0.58864,0.736922 -1.27075,0.267061 -1.49965,0.582021 -1.49965,2.06348 0,1.481459 0.2289,1.796419 1.49965,2.06348 1.22936,0.258361 1.33461,0.391563 0.58397,0.739025 -1.23437,0.571379 -1.19818,0.583001 -2.33356,-0.749364 z M 159.90775,7.8116289 c -1.36136,-0.930489 -1.18664,-4.5476838 0.24994,-5.1743398 0.61861,-0.2698449 1.46216,-0.3273323 1.87457,-0.1277499 0.49794,0.2409803 0.28845,0.425183 -0.62364,0.5483562 -0.95967,0.1295981 -1.46331,0.6055707 -1.67168,1.5798418 -0.40092,1.8745009 0.0866,2.6324759 1.69996,2.6432496 1.05214,0.00703 1.18184,0.1328593 0.59536,0.577629 -0.92292,0.6999118 -1.03539,0.6974248 -2.12451,-0.046987 z m 3.99907,0.2985859 c -0.2062,-0.2459249 -0.37491,-1.1642926 -0.37491,-2.0408171 0,-1.2340933 0.28198,-1.6569361 1.24971,-1.8740258 0.68734,-0.1541896 1.24971,-0.052975 1.24971,0.2249204 0,0.2778958 -0.32317,0.5052651 -0.71816,0.5052651 -0.43588,0 -0.77972,0.7137345 -0.87479,1.8158968 -0.0862,0.9987433 -0.32536,1.6146855 -0.53156,1.3687606 z m 3.17784,-0.1328799 c -1.01654,-0.3976327 -0.5692,-1.6447698 0.82123,-2.2895212 l 1.37469,-0.637448 -1.49966,-0.080242 c -1.22169,-0.065369 -1.34547,-0.1858377 -0.66781,-0.6499511 1.35919,-0.9308845 2.41741,-0.051458 2.41741,2.0089726 0,1.8343661 -0.72351,2.3219144 -2.44586,1.6481897 z m 1.57106,-1.0938324 c -0.34367,-0.1627332 -0.90604,-0.1627332 -1.24971,0 -0.34367,0.1627333 -0.0625,0.2958787 0.62486,0.2958787 0.68734,0 0.96852,-0.1331454 0.62485,-0.2958787 z m 4.87387,0.9840297 c -0.6132,-0.457741 -0.63784,-0.7718105 -0.13521,-1.7236568 0.38662,-0.7321612 0.43298,-1.2956613 0.12497,-1.5190483 -0.78667,-0.5705449 -0.56898,-1.3679982 0.56844,-2.0823428 0.84234,-0.5290203 1.2202,-0.4742774 1.85314,0.2684766 0.59328,0.6962055 0.651,1.1020402 0.22745,1.5990748 -0.42355,0.4970346 -0.41811,0.9492752 0.0214,1.7819241 0.90885,1.7217084 -0.99337,2.9198438 -2.66022,1.6755724 z m 2.37445,-1.3287927 c -0.11456,-0.4032955 -0.62069,-0.7332646 -1.12474,-0.7332646 -0.50405,0 -1.01018,0.3299691 -1.12474,0.7332646 -0.13191,0.4644009 0.28049,0.7332646 1.12474,0.7332646 0.84425,0 1.25665,-0.2688637 1.12474,-0.7332646 z m -0.37491,-2.4930996 c 0,-0.4839547 -0.33743,-0.8799175 -0.74983,-0.8799175 -0.78061,0 -0.99175,0.6937854 -0.41657,1.3687605 0.57518,0.6749752 1.1664,0.4271947 1.1664,-0.488843 z m 2.49942,1.0998969 V 1.8458461 l 1.59977,0.3754654 c 1.77989,0.4177383 2.38027,1.1986832 2.39164,3.1109415 0.008,1.405592 -1.69348,3.1129746 -3.10287,3.1129746 -0.74616,0 -0.88854,-0.5287594 -0.88854,-3.2996908 z m 3.22689,1.0358843 c 0.4576,-1.6918913 -0.21437,-3.0156987 -1.53078,-3.0156987 -1.03386,0 -1.19623,0.2786766 -1.19623,2.0531408 0,1.7837757 0.15954,2.0531409 1.21602,2.0531409 0.74629,0 1.32997,-0.4212855 1.51099,-1.090583 z"
       id="path1" /></g></svg>
